<svg width="24" height="25" viewBox="0 0 24 25" fill="none" xmlns="http://www.w3.org/2000/svg">
<g clip-path="url(#clip0_212_1499)">
<path d="M19.7181 22.4999H5.32002C4.94498 22.4939 4.58002 22.3775 4.27068 22.1654C3.96134 21.9532 3.72132 21.6547 3.58054 21.307C3.43976 20.9594 3.40447 20.5779 3.47907 20.2103C3.55367 19.8427 3.73485 19.5052 4.00002 19.2399C4.1766 19.0617 4.38692 18.9203 4.6187 18.8242C4.85048 18.728 5.09909 18.679 5.35002 18.6799H20.59" stroke="#888A8C" stroke-width="1.5" stroke-miterlimit="10"/>
<path d="M20.5899 18.68V1.8C20.5899 1.63431 20.4556 1.5 20.2899 1.5H5.31991C4.81416 1.50263 4.32987 1.7047 3.97224 2.06233C3.61461 2.41996 3.41254 2.90425 3.40991 3.41V20.59C3.40991 20.0834 3.61114 19.5976 3.96934 19.2394C4.32753 18.8812 4.81335 18.68 5.31991 18.68H20.5899ZM20.5899 18.68V22.2C20.5899 22.3657 20.4556 22.5 20.2899 22.5H14.9999" stroke="#888A8C" stroke-width="1.5" stroke-miterlimit="10"/>
<path d="M11.9999 13.428C11.9999 13.6502 11.7668 13.7952 11.5674 13.6971L10.2038 13.0259C10.1195 12.9844 10.0206 12.9848 9.9366 13.027L8.61466 13.6915C8.41516 13.7918 8.17993 13.6467 8.17993 13.4234V1.8C8.17993 1.63431 8.31425 1.5 8.47993 1.5H11.6999C11.8656 1.5 11.9999 1.63431 11.9999 1.8V13.428Z" stroke="#888A8C" stroke-width="1.5" stroke-miterlimit="10"/>
</g>
<defs>
<clipPath id="clip0_212_1499">
<rect width="24" height="24" fill="white" transform="translate(0 0.5)"/>
</clipPath>
</defs>
</svg>
