<svg width="138" height="24" viewBox="0 0 138 24" fill="none" xmlns="http://www.w3.org/2000/svg">
<g clip-path="url(#clip0_182_231)">
<mask id="mask0_182_231" style="mask-type:luminance" maskUnits="userSpaceOnUse" x="0" y="0" width="24" height="24">
<path d="M24 0H0V24H24V0Z" fill="white"/>
</mask>
<g mask="url(#mask0_182_231)">
<path d="M12 23C18.0751 23 23 18.0751 23 12C23 5.92487 18.0751 1 12 1C5.92487 1 1 5.92487 1 12C1 18.0751 5.92487 23 12 23Z" stroke="#888A8C" stroke-width="1.5" stroke-linecap="round" stroke-linejoin="round"/>
<path d="M12 10.3389V17.4899" stroke="#888A8C" stroke-width="1.5" stroke-linecap="round" stroke-linejoin="round"/>
<path d="M12 6.51001V6.73285" stroke="#888A8C" stroke-width="1.5" stroke-linecap="round" stroke-linejoin="round"/>
</g>
</g>
<path d="M43.88 3.2H47.504V20H43.88V13.064H37.568V20H33.92V3.2H37.568V9.68H43.88V3.2ZM57.218 20.36C55.89 20.36 54.69 20.064 53.618 19.472C52.546 18.88 51.706 18.064 51.098 17.024C50.506 15.968 50.21 14.8 50.21 13.52C50.21 11.552 50.874 9.92 52.202 8.624C53.53 7.328 55.202 6.68 57.218 6.68C59.218 6.68 60.882 7.328 62.21 8.624C63.538 9.92 64.202 11.552 64.202 13.52C64.202 15.472 63.53 17.104 62.186 18.416C60.858 19.712 59.202 20.36 57.218 20.36ZM57.218 17.072C58.226 17.072 59.05 16.744 59.69 16.088C60.33 15.416 60.65 14.56 60.65 13.52C60.65 12.48 60.33 11.632 59.69 10.976C59.05 10.304 58.218 9.968 57.194 9.968C56.186 9.968 55.362 10.304 54.722 10.976C54.082 11.632 53.762 12.48 53.762 13.52C53.762 14.032 53.842 14.512 54.002 14.96C54.178 15.408 54.418 15.784 54.722 16.088C55.026 16.392 55.386 16.632 55.802 16.808C56.234 16.984 56.706 17.072 57.218 17.072ZM76.1617 13.112C76.7537 13.384 77.2097 13.784 77.5297 14.312C77.8657 14.824 78.0337 15.424 78.0337 16.112C78.0337 17.216 77.6417 18.144 76.8577 18.896C76.0897 19.632 75.1137 20 73.9297 20H66.8497V7.04H73.8577C74.9617 7.04 75.8657 7.352 76.5697 7.976C77.2897 8.584 77.6497 9.368 77.6497 10.328C77.6497 10.904 77.5137 11.44 77.2417 11.936C76.9857 12.416 76.6257 12.808 76.1617 13.112ZM74.2177 10.904C74.2177 10.648 74.1617 10.432 74.0497 10.256C73.9377 10.064 73.7777 9.92 73.5697 9.824C73.3777 9.712 73.1537 9.656 72.8977 9.656H70.2817V12.152H72.8977C73.2817 12.152 73.5937 12.032 73.8337 11.792C74.0897 11.552 74.2177 11.256 74.2177 10.904ZM73.0657 17.216C73.4977 17.216 73.8417 17.104 74.0977 16.88C74.3537 16.64 74.4817 16.32 74.4817 15.92C74.4817 15.504 74.3537 15.176 74.0977 14.936C73.8417 14.696 73.4977 14.576 73.0657 14.576H70.2817V17.216H73.0657ZM86.9189 20.36C85.5909 20.36 84.3909 20.064 83.3189 19.472C82.2469 18.88 81.4069 18.064 80.7989 17.024C80.2069 15.968 79.9109 14.8 79.9109 13.52C79.9109 11.552 80.5749 9.92 81.9029 8.624C83.2309 7.328 84.9029 6.68 86.9189 6.68C88.9189 6.68 90.5829 7.328 91.9109 8.624C93.2389 9.92 93.9029 11.552 93.9029 13.52C93.9029 15.472 93.2309 17.104 91.8869 18.416C90.5589 19.712 88.9029 20.36 86.9189 20.36ZM86.9189 17.072C87.9269 17.072 88.7509 16.744 89.3909 16.088C90.0309 15.416 90.3509 14.56 90.3509 13.52C90.3509 12.48 90.0309 11.632 89.3909 10.976C88.7509 10.304 87.9189 9.968 86.8949 9.968C85.8869 9.968 85.0629 10.304 84.4229 10.976C83.7829 11.632 83.4629 12.48 83.4629 13.52C83.4629 14.032 83.5429 14.512 83.7029 14.96C83.8789 15.408 84.1189 15.784 84.4229 16.088C84.7269 16.392 85.0869 16.632 85.5029 16.808C85.9349 16.984 86.4069 17.072 86.9189 17.072ZM102.575 20.36C101.295 20.36 100.127 20.064 99.0706 19.472C98.0306 18.864 97.2066 18.032 96.5986 16.976C96.0066 15.92 95.7106 14.752 95.7106 13.472C95.7106 11.536 96.3666 9.92 97.6786 8.624C98.9906 7.328 100.631 6.68 102.599 6.68C104.279 6.68 105.719 7.168 106.919 8.144C108.119 9.104 108.879 10.384 109.199 11.984H105.719C105.431 11.36 105.007 10.872 104.447 10.52C103.903 10.152 103.279 9.968 102.575 9.968C101.631 9.968 100.839 10.304 100.199 10.976C99.5746 11.648 99.2626 12.488 99.2626 13.496C99.2626 14.504 99.5826 15.352 100.223 16.04C100.863 16.728 101.647 17.072 102.575 17.072C103.279 17.072 103.903 16.888 104.447 16.52C104.991 16.136 105.415 15.592 105.719 14.888H109.247C108.927 16.536 108.159 17.864 106.943 18.872C105.727 19.864 104.271 20.36 102.575 20.36ZM122.139 7.04V10.184H117.915V20H114.483V10.184H110.259V7.04H122.139ZM133.809 7.04H135.777V20H132.393V13.136L126.369 20H124.377V7.04H127.761V13.832L133.809 7.04Z" fill="#888A8C"/>
<defs>
<clipPath id="clip0_182_231">
<rect width="24" height="24" fill="white"/>
</clipPath>
</defs>
</svg>
