<svg width="22" height="20" viewBox="0 0 22 20" fill="none" xmlns="http://www.w3.org/2000/svg">
<path d="M18.2719 18.5428H3.72814C3.36987 18.5428 3.01512 18.472 2.68412 18.3345C2.35313 18.197 2.05238 17.9954 1.79905 17.7414C1.54572 17.4873 1.34477 17.1856 1.20767 16.8536C1.07057 16.5216 1 16.1658 1 15.8065V2.20947C1 1.65719 1.44772 1.20947 2 1.20947H7.7686C8.08519 1.20947 8.38308 1.35939 8.57172 1.61365L10.6811 4.45693C10.8698 4.71119 11.1677 4.8611 11.4842 4.8611H20C20.5523 4.8611 21 5.30882 21 5.8611V15.8065C21 16.1658 20.9294 16.5216 20.7923 16.8536C20.6552 17.1856 20.4543 17.4873 20.2009 17.7414C19.9476 17.9954 19.6469 18.197 19.3159 18.3345C18.9849 18.472 18.6301 18.5428 18.2719 18.5428Z" fill="#7CA4D9" stroke="#7CA4D9" stroke-width="1.91" stroke-miterlimit="10"/>
<path d="M13.6672 1.20947L18.3339 1.20947" stroke="#7CA4D9" stroke-width="1.91" stroke-miterlimit="10" stroke-linecap="round"/>
</svg>
