<svg width="473" height="389" viewBox="0 0 473 389" fill="none" xmlns="http://www.w3.org/2000/svg">
<path d="M84.5844 216.03C84.4326 215.781 70.893 191.453 61.3263 175.073C61.1067 174.514 60.676 174.06 60.1267 173.814C59.5771 173.566 58.9525 173.543 58.3864 173.75C40.5999 177.059 25.2953 179.837 2.24869 184.289C9.38827 201.211 3.49338 188.618 21.4965 227.246C21.7629 227.914 22.0293 228.446 22.9653 228.179C29.7836 226.846 36.602 225.8 43.4154 224.452C54.6499 222.2 82.0428 216.696 84.5844 216.03Z" fill="#7CA4D9"/>
<path d="M176.407 112.91C175.874 112.91 175.067 111.975 174.938 111.307C174.109 107.043 159.277 26.4676 158.899 25.1284C158.331 23.1407 159.163 21.8984 161.304 21.6499C168.772 20.7828 276.249 9.2269 282.402 8.57594C283.736 8.4368 284.559 8.70265 284.941 10.176C286.074 14.5638 304.167 90.4909 305.657 97.023C305.756 97.413 305.767 97.8205 305.686 98.215C305.605 98.6096 305.437 98.9808 305.192 99.3013C304.949 99.6217 304.636 99.8832 304.275 100.066C303.916 100.249 303.52 100.348 303.118 100.357C297.77 100.767 178.279 113.041 176.407 112.91Z" fill="#191919"/>
<path d="M86.8544 238.441C86.2619 234.308 84.7705 231.171 88.4598 230.039C91.2902 229.167 91.2653 229.235 91.2653 224.436C90.9973 219.181 92.6606 214.011 95.9428 209.893C98.0955 206.77 100.845 204.101 104.033 202.041C107.221 199.981 110.785 198.571 114.521 197.888C120.615 196.606 122.153 195.801 138.446 197.753C144.172 198.439 160.019 201.64 167.323 201.756C176.309 201.9 184.223 198.745 181.485 190.148C177.736 178.313 166.725 173.338 154.886 165.87C148.944 162.12 144.037 158.757 148.336 152.395C150.372 149.588 153.085 147.339 156.223 145.858C164.95 141.291 164.577 141.855 168.918 141.187C168.918 140.921 168.918 140.387 169.185 140.255C170.927 138.921 170.367 137.323 169.986 135.718C169.348 132.129 169.485 128.445 170.387 124.912C170.655 123.939 171.228 123.077 172.021 122.451C172.815 121.825 173.788 121.469 174.798 121.434C180.556 120.987 306.202 107.838 311.54 107.162C313.521 106.832 315.552 106.961 317.475 107.539C319.398 108.118 321.163 109.13 322.632 110.497C334.635 121.044 357.346 138.66 369.146 148.385C370.289 149.118 371.15 150.216 371.587 151.5C372.025 152.784 372.013 154.179 371.552 155.455C370.988 157.103 370.488 162.768 363.397 163.592C341.877 166.097 253.687 174.893 223.993 178.4C208.372 180.245 192.018 169.534 181.891 157.722C178.583 154.113 175.711 150.128 173.335 145.85C173.068 145.05 171.318 145.169 170.93 144.782C169.994 143.313 168.792 143.848 167.589 144.248C161.155 145.796 155.333 149.236 150.878 154.121C145.934 160.132 156.133 162.84 169.591 171.864C176.959 176.804 184.997 185.655 184.828 194.14C184.717 196.033 184.101 197.859 183.043 199.432C181.986 201.006 180.525 202.267 178.814 203.085C164.682 209.321 139.913 199.039 122.676 200.151C111.972 200.84 103.087 204.986 97.5484 214.562C95.2439 218.375 94.127 222.786 94.3399 227.233C94.3399 228.301 94.606 229.103 95.9428 229.368C98.4845 229.637 98.9101 231.763 99.4279 233.77C100.135 236.563 100.103 236.503 102.913 236.174C142.375 231.571 126.562 232.734 139.402 231.502C141.262 231.471 143.092 231.968 144.679 232.935C146.265 233.904 147.544 235.302 148.364 236.969C154.269 249.841 175.73 292.274 176.3 299.268C176.563 300.802 176.224 302.38 175.352 303.672C174.481 304.964 173.144 305.871 171.619 306.204C166.585 308.335 161.345 309.944 155.981 311.008C155.688 311.076 103.623 321.967 95.5671 322.748C93.1574 322.98 84.7407 323.414 81.2655 321.547C72.961 318.954 66.7351 304.208 63.2226 296.204C47.8384 261.138 48.0873 260.177 47.45 253.116C47.2631 251.483 47.694 249.839 48.6584 248.505C49.6226 247.172 51.0507 246.247 52.6627 245.911C60.803 243.857 68.9581 242.128 77.1232 240.308C82.3434 239.141 86.3689 238.929 86.8544 238.441ZM54.6418 263.39C54.3976 263.432 54.1663 263.531 53.9657 263.676C53.7651 263.821 53.6006 264.011 53.4847 264.231C53.3685 264.448 53.3042 264.691 53.2963 264.939C53.2886 265.185 53.3376 265.432 53.4394 265.658C57.6041 275.045 75.7615 312.884 76.5631 313.948C77.5589 314.942 170.129 296.663 170.392 296.605C170.673 296.547 170.936 296.425 171.163 296.249C171.39 296.073 171.575 295.85 171.703 295.595C171.831 295.338 171.9 295.057 171.905 294.771C171.909 294.483 171.849 294.199 171.729 293.941C167.318 284.797 151.144 250.315 149.823 247.646C149.661 247.414 149.439 247.228 149.179 247.11C148.92 246.994 148.634 246.948 148.351 246.982C137.921 248.715 68.5424 260.856 54.6418 263.39ZM176.942 145.592C179.711 150.786 183.223 155.55 187.367 159.735C200.222 171.909 214.785 176.232 219.446 175.885C223.719 175.559 352.444 161.66 361.794 160.544C363.327 160.47 364.787 159.873 365.93 158.855C367.073 157.834 367.833 156.453 368.077 154.941C368.291 154.136 368.281 153.287 368.044 152.487C367.81 151.687 367.358 150.966 366.742 150.405C351.166 137.547 335.558 124.435 320.093 111.451C319.325 110.706 318.394 110.149 317.373 109.825C316.353 109.501 315.272 109.418 314.212 109.582C304.881 110.956 189.112 123.263 175.874 124.659C171.311 125.139 172.498 126.361 173.601 137.465C173.721 138.667 174.403 139.065 175.592 139.065C176.877 139.046 178.136 139.419 179.202 140.133C180.199 141.191 180.931 142.467 181.341 143.86C181.876 144.928 181.341 145.599 180.138 145.599C179.077 145.73 178.003 145.728 176.942 145.592Z" fill="#191919"/>
<path d="M351.509 53.1421C350.308 49.1394 349.237 45.2709 347.899 41.5365C347.439 35.6399 347.843 29.7075 349.102 23.9281C351.094 22.9343 353.726 28.6215 357.257 32.3311C360.056 35.2728 360.464 39.0022 361.535 42.4707C362.07 44.2099 362.601 45.8051 363.136 47.5393C363.209 47.5476 363.283 47.5399 363.352 47.5168C363.422 47.4936 363.485 47.4555 363.539 47.4052C363.271 45.6659 362.201 28.4625 362.201 22.0622C362.201 18.0868 365.211 13.9797 369.019 15.791C372.67 17.5302 372.977 21.1752 373.562 25.2623C376.371 24.9965 376.722 25.2623 377.296 28.065C377.871 30.9722 377.871 33.963 377.296 36.8704C377.021 37.9686 376.662 38.4208 375.961 38.0705C375.691 34.592 374.89 27.5308 374.755 27.5308C374.515 28.4517 374.336 29.3882 374.222 30.3334C374.625 36.6029 375.158 42.8724 375.826 49.1419C375.826 49.5146 376.189 51.4302 377.296 50.8811C379.01 40.8868 381.288 30.9972 384.119 21.2596C384.792 18.6483 386.659 16.2035 389.333 17.1228C390.046 17.5886 390.606 18.2562 390.938 19.0401C391.272 19.824 391.366 20.689 391.204 21.5255C391.204 21.7913 391.071 21.9255 391.071 22.1939C391.739 22.4442 392.309 22.9044 392.695 23.5055C393.081 24.1068 393.262 24.8164 393.208 25.5282C393.276 28.5992 393.276 31.5285 393.208 34.5995C393.183 34.9262 393.04 35.2327 392.805 35.4614C392.569 35.6902 392.26 35.8254 391.932 35.842C391.602 35.8584 391.28 35.7548 391.023 35.5509C390.766 35.3467 390.592 35.0562 390.536 34.7337C390.476 33.746 390.341 32.7644 390.133 31.7969C383.111 66.8447 388.117 49.8376 396.55 32.1969C397.292 30.8945 398.191 29.6858 399.224 28.5967C400.25 27.0693 401.416 25.6404 402.709 24.3281C402.904 23.995 403.175 23.7128 403.499 23.5039C403.825 23.2949 404.196 23.1653 404.58 23.1256C405.783 23.1256 405.934 23.9256 406.049 25.1282C406.37 28.4575 406.853 31.6652 407.254 34.9995C407.476 36.1126 407.096 36.5921 399.767 52.7421C399.226 53.9397 399.767 54.5906 400.705 55.1447C401.788 55.7907 402.976 56.4789 404.045 57.0106C404.874 57.4372 405.536 58.1298 405.924 58.9768C406.312 59.8238 406.403 60.7765 406.183 61.6817C405.132 68.3752 396.323 116.892 395.357 122.912C393 137.589 371.513 134.819 356.996 131.718C349.704 130.162 350.216 125.755 348.443 118.112C347.482 113.98 336.519 67.3888 334.676 60.7475C332.961 54.6155 345.219 52.8042 351.509 53.1421ZM402.043 63.1476C380.657 67.6845 359.537 68.0845 338.686 60.7475C344.476 89.636 347.2 97.5023 354.193 124.105C355.058 127.407 357.155 126.985 358.336 127.583C374.438 129.323 380.703 131.31 387.874 127.983C388.878 127.622 389.768 126.998 390.451 126.177C391.133 125.356 391.581 124.368 391.749 123.315C401.566 70.8872 398.558 83.2605 402.028 63.1476H402.043ZM350.849 40.8682C351.905 47.4095 353.693 53.8119 356.183 59.9549C356.33 60.2767 356.56 60.5531 356.85 60.7549C359.257 61.155 361.661 61.4208 364.202 61.6892C363.8 60.0766 357.597 40.3215 357.518 40.0731C356.315 36.9996 350.301 40.2023 350.835 40.8682H350.849ZM400.972 36.9996C400.306 37.1338 399.634 37.6829 398.968 37.5338C398.431 37.4146 398.033 36.5996 397.498 35.9337C393.888 44.3367 389.48 52.3321 386.271 61.1475C388.675 60.8792 390.681 60.6133 392.685 60.3475C393.66 60.3475 393.778 59.7611 402.176 40.2023C402.617 39.2904 401.703 38.2394 400.958 36.9996H400.972ZM381.593 35.1337C379.721 44.3267 378.108 52.8763 376.247 61.8134C378.118 61.6817 379.321 61.5475 380.657 61.5475C382.873 61.5475 381.613 61.6047 387.339 36.5996C385.32 36.0679 383.447 35.6654 381.578 35.1337H381.593ZM373.573 61.8134C372.728 50.0314 372.148 44.5727 371.83 39.1339C371.66 36.2021 371.295 35.6554 368.221 35.9337C367.407 36.1114 366.605 36.3338 365.816 36.5996C366.617 45.005 367.418 53.4104 368.088 61.8134H373.573ZM371.168 32.7435C370.633 28.6091 370.123 24.2014 369.295 19.9378C368.779 17.2669 366.086 18.6036 365.686 19.2695C365.155 20.007 364.872 20.895 364.885 21.8038C365.099 30.7633 365.686 31.608 365.686 33.9436C367.542 33.5311 369.146 33.1212 371.152 32.7311L371.168 32.7435ZM354.726 35.0119C352.187 31.1434 352.187 31.1434 350.449 31.6776C349.648 37.6804 349.113 36.7462 350.849 36.7462C352.262 36.494 353.589 35.8936 354.71 34.9995L354.726 35.0119ZM400.172 33.6777C402.043 32.6118 402.043 32.6118 403.906 35.2778H404.306C404.175 33.5435 404.041 31.8093 403.906 30.075C403.207 29.8117 402.493 29.5895 401.767 29.4092C399.219 32.1969 399.219 32.1969 400.157 33.6653L400.172 33.6777Z" fill="#191919"/>
<path d="M15.8807 367.179C14.5952 367.361 13.2903 367.361 12.0048 367.179C11.7631 367.123 11.5389 367.009 11.3524 366.847C11.1661 366.684 11.0232 366.477 10.9369 366.245C10.8024 365.978 11.3376 365.443 11.604 365.044C12.0704 364.572 12.6356 364.205 13.2596 363.975C13.8834 363.744 14.5506 363.655 15.2136 363.71C38.6534 359.323 419.346 289.918 461.773 281.667C465.702 280.901 468.092 284.702 464.982 285.394C462.221 286.021 16.1297 367.133 15.8807 367.179Z" fill="#191919"/>
<path d="M470.461 296.475C470.926 296.295 471.44 296.291 471.907 296.462C472.374 296.634 472.763 296.972 473 297.409C472.732 298.875 471.531 299.148 470.328 299.543C318.726 335.79 33.1963 388.124 19.4899 388.124C19.4899 382.417 109.861 375.251 470.461 296.475Z" fill="#191919"/>
<path d="M82.043 156.132C78.309 159.335 67.7541 157.712 64.0001 155.333C61.4257 153.699 59.3208 151.426 57.8914 148.736C56.4623 146.047 55.7579 143.033 55.8475 139.989C55.4616 127.094 66.4297 122.816 73.3552 128.65C73.8904 129.05 74.4256 129.584 74.8264 128.65C75.89 126.609 77.4504 124.867 79.3643 123.585C81.2782 122.303 83.4842 121.522 85.7796 121.312C99.247 118.992 106.078 117.598 126.279 121.447C132.303 122.595 135.49 127.715 134.967 134.252C134.118 143.685 130.38 152.627 124.263 159.867C122.084 162.594 118.926 164.364 115.46 164.805C109.314 165.749 103.078 165.973 96.8796 165.472C89.2871 164.841 84.5797 158.302 82.043 156.132ZM76.6984 132.386C76.2754 137.184 77.1037 142.009 79.1031 146.392C81.7478 151.729 85.5356 156.42 90.1982 160.134C91.888 161.673 94.065 162.569 96.3494 162.669C103.633 163.232 110.959 162.828 118.136 161.47C118.863 161.256 119.513 160.838 120.008 160.267C127.178 152.885 132.98 141.617 132.572 131.052C132.341 125.069 126.077 123.253 120.143 122.381C106.909 120.433 77.9879 119.124 76.6984 132.386ZM98.7516 122.913C120.556 120.676 134.531 127.445 128.826 129.984C118.659 134.508 101.692 137.117 82.3119 132.118C80.303 131.601 76.9548 128.888 81.3759 126.381C84.4428 124.637 95.0076 123.295 98.7516 122.913ZM73.624 133.452C73.7883 132.63 73.6458 131.777 73.2232 131.052C72.3681 130.005 71.2492 129.204 69.9812 128.731C68.7133 128.258 67.3423 128.13 66.0086 128.361C64.6749 128.592 63.4272 129.173 62.3928 130.045C61.3587 130.917 60.5756 132.047 60.1242 133.321C59.2691 135.306 58.8424 137.448 58.8712 139.609C58.9 141.77 59.384 143.9 60.2916 145.862C61.1992 147.824 62.5102 149.573 64.1393 150.996C65.7686 152.419 67.6794 153.484 69.7481 154.122C73.2834 155.525 77.1867 155.712 80.8407 154.654C80.1735 153.72 79.5039 152.914 78.9687 152.119C71.1745 154.888 56.1113 140.407 65.8721 133.577C66.9675 132.701 68.3233 132.213 69.7267 132.191C71.1301 132.168 72.5009 132.612 73.624 133.452ZM78.3015 151.195C75.5585 146.828 74.0354 141.808 73.8904 136.655C73.6755 136.121 73.3431 135.642 72.9181 135.254C72.493 134.865 71.9858 134.577 71.4342 134.41C70.8826 134.243 70.3003 134.202 69.7306 134.289C69.1608 134.377 68.6181 134.591 68.1424 134.916C60.7515 139.01 69.9248 151.195 78.3015 151.195ZM97.2804 127.184C93.5464 125.315 86.855 125.981 84.7166 129.318C88.9933 128.53 92.8643 127.849 97.2804 127.184Z" fill="#191919"/>
<path d="M167.989 119.312C168.524 124.915 165.601 120.11 165.449 119.178C164.615 114.092 148.835 31.936 148.206 27.5283C147.599 24.7147 147.877 21.7829 149.002 19.1326C150.126 16.4826 152.042 14.2431 154.489 12.7201C155.906 11.9948 157.447 11.5422 159.032 11.3858C162.499 10.8069 274.519 0.366601 279.328 0.180255C294.328 -0.401142 292.936 1.58654 314.747 103.17C314.747 105.972 312.637 105.031 312.341 103.836C311.976 102.36 311.37 100.911 311.005 99.4353C291.623 21.2199 291.876 11.2169 290.154 8.05149C289.478 6.48433 288.331 5.16645 286.868 4.28151C285.408 3.39658 283.707 2.98869 282.002 3.11458C277.992 3.38788 158.621 14.2953 156.627 15.5227C151.962 18.3725 151.897 22.4448 151.28 26.1941C151.414 26.3283 166.652 111.575 167.989 119.312Z" fill="#191919"/>
<path d="M72.5532 221.098C69.4912 221.699 58.1149 224.146 55.4463 224.701C51.2865 225.568 41.1922 227.049 23.9011 230.838C23.2258 231.041 22.5166 231.105 21.816 231.024C21.1155 230.946 20.4386 230.724 19.8262 230.376C19.2136 230.028 18.6786 229.558 18.2531 228.997C17.8278 228.436 17.521 227.794 17.3515 227.111C-0.850643 183.96 -0.238258 185.243 0.110252 182.81C0.110252 181.986 -0.599218 182.361 48.6279 172.94C52.113 172.276 55.5857 171.638 59.0533 170.806C60.6615 170.421 61.4606 171.34 62.1277 172.545C78.7069 202.331 71.9209 191.428 84.3154 211.499C85.3858 213.239 86.2098 214.953 87.2553 216.57C87.9399 217.626 87.3873 218.425 86.3218 218.705C85.3958 218.941 76.4341 220.34 72.5532 221.098ZM84.5844 216.03C84.4326 215.781 70.8928 191.453 61.3261 175.075C61.1064 174.514 60.6762 174.063 60.1267 173.814C59.5774 173.568 58.9527 173.543 58.3864 173.75C40.5999 177.059 25.2953 179.837 2.24869 184.289C9.38814 201.213 3.4935 188.618 21.4965 227.246C21.7629 227.914 22.0293 228.446 22.9653 228.179C29.7836 226.846 36.602 225.8 43.4154 224.452C54.6499 222.2 82.0428 216.696 84.5844 216.03Z" fill="#191919"/>
<path d="M7.99699 107.162C5.12178 107.736 3.75014 103.885 6.66021 103.16C10.3942 102.712 149.087 90.5874 153.552 90.2197C155.422 90.0657 156.092 90.3514 156.226 91.6856C156.36 93.0199 155.957 93.6882 154.484 93.6882C149.477 93.6982 8.78606 107.162 7.99699 107.162Z" fill="#191919"/>
<path d="M424.482 177.208C416.871 175.139 421.138 177.191 401.493 169.872C396.313 167.696 391.455 164.824 387.055 161.335C386.125 160.695 385.082 160.242 383.98 160C383.167 159.888 382.402 159.557 381.767 159.041C381.13 158.525 380.649 157.844 380.373 157.074C380.097 156.304 380.039 155.474 380.203 154.67C380.367 153.869 380.748 153.13 381.306 152.529C384.406 148.851 388.416 146.046 392.936 144.392C400.715 141.12 408.44 142.26 416.058 144.926C427.432 148.901 441.501 153.037 444.935 164.137C445.468 166.176 445.343 168.331 444.574 170.296C443.806 172.259 442.435 173.93 440.657 175.069C431.183 180.28 428.644 178.342 424.482 177.208ZM390.532 161.869C398.915 167.095 408.073 170.967 417.666 173.34C416.106 171.785 419.423 173.752 391.467 161.6C390.378 160.878 389.878 161.54 390.532 161.869ZM399.085 144.526C393.716 145.768 386.14 149.108 383.047 153.598C381.678 155.585 382.24 156.952 384.653 157.6C397.108 160.82 409.034 165.805 420.07 172.406C426.204 175.493 431.052 178.106 439.051 171.474C442.785 168.383 442.931 165.735 440.387 161.6C438.342 158.122 435.259 155.37 431.567 153.732C425.289 151.053 418.871 148.66 412.32 146.392C408.063 144.952 403.574 144.32 399.085 144.526Z" fill="#191919"/>
<path d="M377.568 210.162C377.834 205.091 381.694 203.116 386.121 205.625C386.37 205.772 420.522 224.56 447.206 239.913C449.571 242.501 451.674 245.317 453.485 248.317C454.102 249.247 453.799 250.305 452.284 250.305C440.435 248.992 450.946 253.158 381.043 214.03C379.84 212.961 378.103 211.897 377.568 210.162ZM445.468 241.244L395.073 212.696C394.668 212.354 394.195 212.106 393.685 211.965C393.174 211.826 392.639 211.8 392.116 211.889C391.594 211.978 391.098 212.181 390.662 212.481C390.227 212.781 389.864 213.174 389.596 213.63C388.501 214.943 388.534 215.618 389.996 216.431C413.054 229.179 441.794 245.913 442.393 245.913C443.329 244.447 444.264 242.845 445.468 241.244ZM449.745 245.779L447.741 242.578C445.198 243.644 444.132 244.979 444.256 247.112C446.136 246.847 448.272 248.18 449.745 245.779ZM381.039 211.363C382.105 209.76 383.043 208.294 384.113 206.692C383.79 206.514 383.435 206.404 383.07 206.369C382.702 206.331 382.333 206.373 381.985 206.485C381.634 206.596 381.311 206.781 381.035 207.023C380.759 207.265 380.535 207.561 380.379 207.893C379.439 209.493 379.84 210.828 381.043 211.363H381.039ZM386.117 214.562C387.453 212.822 388.656 211.493 389.851 210.027C388.907 209.965 387.972 210.238 387.212 210.802C386.453 211.363 385.918 212.176 385.706 213.096C385.721 213.504 386.111 214.162 386.111 214.562H386.117ZM383.443 213.228C384.648 211.241 385.582 209.75 386.385 208.16C384.379 208.559 383.043 209.628 382.9 211.363C382.974 212.011 383.159 212.642 383.447 213.228H383.443Z" fill="#191919"/>
<path d="M130.028 158.132C138.148 159.542 135.835 176.396 107.439 178.144C96.4189 178.821 72.2497 174.506 76.4293 165.872C76.7795 164.849 77.4215 163.952 78.2766 163.29C79.1317 162.627 80.1623 162.23 81.2413 162.145C81.038 162.548 80.7098 162.876 80.3053 163.079C79.6257 163.437 79.0612 163.979 78.6764 164.642C78.2918 165.306 78.1026 166.064 78.1306 166.832C78.1588 167.598 78.403 168.342 78.8351 168.975C79.2674 169.609 79.8702 170.108 80.5741 170.416C92.6077 177.715 117.34 178.506 129.761 168.429C130.441 167.926 131.011 167.292 131.436 166.561C131.861 165.832 132.132 165.025 132.232 164.186C132.332 163.348 132.259 162.499 132.018 161.689C131.777 160.882 131.372 160.13 130.829 159.484C130.429 159.2 130.294 158.666 130.028 158.132Z" fill="#191919"/>
<path d="M410.181 69.4188C408.239 69.4188 407.868 67.779 409.245 66.7503C411.513 64.3105 440.539 62.4818 440.79 62.4818C441.464 62.4288 442.13 62.645 442.644 63.0827C443.157 63.5206 443.476 64.144 443.53 64.8161C443.582 65.4884 443.366 66.154 442.926 66.6667C442.489 67.1796 441.864 67.4974 441.19 67.5504C430.899 68.7645 420.545 69.3884 410.181 69.4188Z" fill="#191919"/>
<path d="M321.296 73.953C331.751 72.7629 333.48 72.584 334.93 73.4188C335.205 73.5449 335.436 73.7501 335.591 74.0079C335.749 74.2656 335.824 74.5642 335.809 74.8653C335.795 75.1665 335.691 75.4564 335.51 75.698C335.33 75.9396 335.081 76.1219 334.797 76.2214C332.932 76.8981 331.007 77.3898 329.048 77.6898C324.375 78.2663 319.558 78.6241 314.747 78.8899C312.743 79.1558 309.123 75.3394 321.296 73.953Z" fill="#191919"/>
<path d="M361.661 196.02C360.728 194.819 359.67 193.351 357.653 194.151C357.251 194.285 353.202 194.577 352.177 192.817C350.252 189.537 342.893 187.599 340.012 187.351C312.689 184.43 300.35 189.989 286.818 197.623C284.211 198.739 286.103 198.171 277.726 195.223C261.576 189.177 234.272 190.531 208.223 207.095C204.858 209.166 201.985 211.942 199.805 215.232C198.116 217.754 196.84 217.317 193.121 218.959C192.721 219.05 192.349 219.239 192.04 219.508C191.73 219.777 191.492 220.119 191.346 220.5C191.201 220.883 191.152 221.297 191.205 221.703C191.258 222.109 191.411 222.496 191.649 222.829C193.788 226.432 232.55 291.268 236.025 297.27C237.096 299.138 237.896 299.539 239.9 299.138C247.254 297.535 309.192 285.532 322.906 282.596C325.082 282.008 327.339 281.783 329.588 281.928C334.239 282.484 338.927 281.24 342.686 278.449C343.742 277.677 344.993 277.215 346.296 277.116C352.577 276.314 400.697 269.244 405.64 268.577C420.313 267.049 425.37 278.511 361.661 196.02ZM243.238 292.872C242.242 291.878 200.232 222.682 200.066 222.434C201.234 221.268 197.577 216.346 242.57 290.473C244.006 292.86 244.018 292.094 243.238 292.872ZM264.356 286.201C280.859 278.913 298.589 274.795 316.618 274.062L264.356 286.201ZM269.704 281.397C281.332 275.53 293.494 271.795 305.926 272.327C293.554 274.01 281.406 277.051 269.704 281.397ZM246.58 291.539C231.341 266.726 216.104 241.956 200.867 217.23C223.676 197.851 254.125 190.473 279.863 199.623C283.041 200.72 285.734 202.89 287.48 205.76C309.501 239.445 329.038 268.395 331.72 272.861C299.778 262.991 271.976 271.662 246.58 291.539ZM334.93 272.327C319.292 248.847 303.518 225.103 287.615 201.356C302.597 188.978 334.083 187.585 349.766 193.351C350.953 193.649 399.906 257.415 400.958 258.986C389.671 256.574 377.962 256.986 366.872 260.187C355.716 262.742 344.966 266.827 334.93 272.327ZM390.799 260.856C381.589 262.189 371.82 263.39 362.196 264.724C375.029 261.256 387.057 259.788 390.799 260.856ZM349.366 270.726C349.258 270.571 349.21 270.38 349.231 270.192C352.305 269.393 355.515 268.453 358.854 267.925C365.59 266.904 392.168 262.904 399.085 262.589C399.991 262.601 400.891 262.736 401.759 262.991C384.119 265.658 366.742 268.192 349.366 270.726Z" fill="#191919"/>
<path d="M381.043 211.363C378.305 210.145 380.603 205.004 383.982 206.692C383.047 208.286 381.979 209.76 381.043 211.363Z" fill="#7CA4D9"/>
<path d="M145.8 296.875C145.531 298.341 144.727 299.036 143.393 298.875C137.092 298.113 145.329 301.732 118.399 285.802C111.377 281.646 82.5774 266.154 82.5774 260.856C83.2321 260.202 90.7575 261.353 91.9349 262.055C151.505 297.968 141.523 291.541 145.8 296.875ZM117.864 283.267C118.539 283.94 130.966 291.324 139.917 296.605C140.846 297.156 141.254 296.74 141.789 296.075C142.325 295.272 141.789 294.877 141.122 294.473C138.608 292.949 123.61 283.789 118.8 280.998C118.535 281.772 118.222 282.53 117.864 283.267Z" fill="#191919"/>
<path d="M314.345 114.644C316.79 115.019 315.091 114.057 351.905 145.726C353.293 146.65 352.276 147.594 351.37 147.594C346.291 148.126 225.327 161.878 219.848 162.669C218.992 162.809 218.114 162.708 217.311 162.379C216.508 162.047 215.814 161.501 215.303 160.801C189.165 129.164 188.328 129.246 188.704 128.115C189.757 126.013 314.052 114.596 314.345 114.644ZM213.299 137.589C211.694 137.855 210.49 138.121 209.154 138.255C207.951 138.523 209.02 138.923 209.825 138.923C214.581 137.604 216.618 140.729 222.12 147.594C220.249 147.86 218.778 147.994 217.307 148.26C215.971 148.795 217.174 148.66 217.307 148.795C218.595 148.936 219.894 148.936 221.182 148.795C221.85 148.639 222.547 148.682 223.188 148.919C223.831 149.156 224.389 149.577 224.792 150.129C226.066 151.398 227.404 152.6 228.804 153.728C229.204 153.997 229.605 154.262 229.204 153.329C227.866 151.863 226.665 150.395 225.194 148.929C225.165 148.896 225.147 148.857 225.138 148.815C225.132 148.773 225.134 148.73 225.147 148.69C225.161 148.649 225.184 148.613 225.217 148.585C225.248 148.556 225.286 148.536 225.327 148.526C227.466 148.26 236.554 147.06 241.232 146.66C241.908 146.751 242.526 147.083 242.975 147.594C246.418 151.031 251.071 156.416 249.659 153.598C247.787 151.329 245.924 148.929 243.91 146.66C244.445 146.392 248.196 146.047 258.481 144.921C263.161 144.424 264.659 143.825 266.099 145.455C267.592 147.16 269.173 148.79 270.644 150.524C271.312 151.59 271.847 151.058 271.044 150.124C269.708 148.121 268.237 146.255 266.769 144.121C272.513 143.453 278.131 142.787 283.875 142.118C285.866 142.118 288.188 146.499 290.826 148.255L291.227 147.855C289.758 145.987 288.42 144.128 286.949 142.253C286.574 141.507 286.476 141.974 302.589 139.85C304.462 139.601 305.663 139.318 306.999 141.184C309.405 145.455 310.484 146.121 309.538 143.721C309.138 143.053 308.202 141.184 307.669 140.118C307.63 140.049 307.611 139.971 307.611 139.893C307.613 139.814 307.636 139.736 307.675 139.669C307.717 139.601 307.775 139.545 307.843 139.507C307.912 139.468 307.991 139.449 308.069 139.45C310.208 139.184 315.558 138.141 320.365 137.584C324.777 137.072 326.126 136.24 327.715 137.984C328.928 139.311 330.258 140.518 331.594 141.853C332.527 142.918 332.928 142.653 332.127 141.452L328.393 136.916C328.329 136.866 328.281 136.797 328.26 136.719C328.239 136.641 328.244 136.558 328.275 136.482C328.304 136.407 328.358 136.344 328.428 136.302C328.497 136.26 328.578 136.241 328.658 136.25L333.204 135.05C334.272 134.781 333.739 134.515 333.071 134.515C326.818 135.082 327.316 136.21 323.98 132.247C322.518 130.508 317.297 126.11 316.496 125.31C316.927 125.06 317.373 124.837 317.832 124.642C318.769 124.376 318.769 123.976 317.431 124.242C316.676 124.402 315.892 124.357 315.16 124.11C314.892 123.976 312.888 121.576 312.218 120.773C311.418 120.107 311.418 120.507 311.818 121.041L313.56 123.842C313.6 123.911 313.619 123.989 313.619 124.068C313.616 124.146 313.594 124.224 313.554 124.291C313.513 124.359 313.455 124.415 313.386 124.453C313.318 124.492 313.239 124.511 313.16 124.51C307.547 125.176 302.066 125.844 296.585 126.376C294.801 126.376 294.096 125.171 292.175 123.576C291.64 122.642 291.239 123.042 291.909 123.842C292.575 124.776 293.11 125.71 293.78 126.644C294.046 127.178 293.913 127.31 293.646 127.31C291.106 127.844 286.026 127.966 282.941 128.378C275.187 129.417 274.77 129.596 271.714 125.976C271.021 125.199 270.26 124.485 269.443 123.842C269.04 123.31 268.775 123.71 269.04 124.242C270.246 125.71 271.714 127.578 273.052 129.179C273.079 129.211 273.096 129.25 273.104 129.292C273.112 129.333 273.108 129.376 273.096 129.416C273.081 129.456 273.059 129.492 273.027 129.52C272.996 129.549 272.959 129.569 272.917 129.579C270.914 129.713 262.628 130.118 259.016 130.779C256.079 131.318 255.531 131.179 253.27 128.513C252.677 127.653 252.005 126.849 251.264 126.11C250.329 124.91 250.598 125.844 250.864 126.51C251.799 127.844 252.735 129.313 253.673 130.779C253.7 130.84 253.714 130.906 253.716 130.974C253.718 131.041 253.706 131.108 253.681 131.17C253.656 131.233 253.619 131.29 253.571 131.337C253.523 131.385 253.465 131.422 253.403 131.447C247.254 132.381 241.267 133.335 235.231 134.247C233.023 134.583 233.789 133.75 230.285 130.247L229.883 130.647C230.687 131.981 231.625 133.181 232.691 134.647C227.478 135.581 222.398 136.24 217.32 137.316C216.573 137.534 215.77 137.479 215.061 137.16C214.349 136.841 213.776 136.28 213.444 135.576C210.103 131.442 209.567 131.708 210.103 132.376C210.992 134.215 212.063 135.961 213.299 137.589Z" fill="#7CA4D9"/>
<path d="M214.903 170.94C214.654 170.692 212.523 169.064 215.168 168.406C220.645 167.737 357.518 152.129 363.397 151.463C364.551 151.463 365.356 152.877 363.532 153.329C349.445 155.144 217.732 170.373 214.903 170.94Z" fill="#191919"/>
<path d="M175.605 127.583C212.177 168.58 213.04 167.424 211.428 168.805C210.49 169.605 209.831 168.665 209.289 168.006C202.3 159.509 173.601 128.654 173.601 128.115C173.601 127.715 173.591 125.322 175.605 127.583Z" fill="#191919"/>
<path d="M233.347 219.899C231.797 220.69 230.304 221.581 229.862 220.434C229.329 218.303 240.605 213.406 241.757 212.961C252.254 208.853 263.518 207.079 274.772 207.758C276.712 207.971 278.633 208.327 280.52 208.826C286.287 211.696 258.745 206.909 233.347 219.899Z" fill="#191919"/>
<path d="M281.601 217.765C284.806 219.098 281.732 219.504 281.197 219.504C274.701 219.541 268.235 220.392 261.952 222.038C261.551 222.173 258.342 221.773 261.417 220.299C273.343 216.485 275.977 216.471 281.601 217.765Z" fill="#191919"/>
<path d="M336.266 245.646C334.664 243.112 333.058 240.71 331.455 238.31C331.22 238.157 330.957 238.054 330.681 238.008C330.405 237.962 330.123 237.973 329.851 238.041C328.505 238.412 327.042 238.84 325.572 239.11C326.376 237.242 328.246 236.84 329.851 235.772C328.646 233.772 327.578 231.772 326.366 229.639C321.547 231.378 321.836 231.287 320.483 230.838C321.296 229.622 319.869 230.093 325.431 227.769C323.825 224.968 322.356 222.303 320.751 219.498C319.682 219.899 318.612 220.299 317.409 220.699C317.409 218.833 319.012 218.711 319.817 217.899C318.612 215.365 317.409 212.827 316.207 210.16C316.342 210.027 316.272 207.977 318.346 210.826C321.831 215.613 322.149 216.963 323.157 216.963C327.569 216.03 331.845 214.961 336.257 213.895C331.71 205.625 331.044 202.822 337.859 212.562C338.014 213.013 338.336 213.39 338.757 213.611C339.18 213.835 339.672 213.889 340.132 213.762C343.335 213.452 346.547 213.361 350.023 213.228C349.577 212.423 349.219 211.574 348.955 210.694C345.47 199.888 350.824 209.893 350.824 210.027C353.284 217.392 359.24 211.181 361.777 215.895C359.639 215.765 357.367 215.63 354.693 215.495C356.164 217.765 357.367 219.765 358.703 221.767C359.016 222.39 365.569 221.815 367.526 223.755C365.252 224.956 362.98 223.755 360.441 224.554C361.512 226.293 362.578 228.032 363.783 229.757C363.916 230.026 364.586 230.026 365.117 230.026C367.125 230.157 368.996 230.157 371 230.291C371.554 230.409 372.092 230.587 372.604 230.825C372.604 231.794 373.394 231.03 365.385 232.291C366.586 234.294 367.656 236.294 368.994 238.163C369.689 238.859 371.982 238.377 377.413 238.698C377.937 238.698 380.4 239.571 379.686 240.298C376.747 240.563 373.803 240.832 370.725 241.097C370.955 242.099 371.266 243.081 371.658 244.031C375.143 253.636 375 254.038 369.915 245.234C368.92 243.905 368.048 241.631 366.708 241.631C363.223 242.166 359.89 242.7 356.284 243.232C357.22 245.499 358.956 250.038 359.489 251.771C360.694 254.972 358.688 252.038 358.556 251.903C355.166 247.112 354.176 244.166 352.675 244.166C348.663 244.965 344.787 245.905 340.777 246.7C341.983 248.835 343.049 250.837 344.119 252.837C345.057 254.305 343.987 254.038 343.451 253.237C342.649 252.303 341.709 251.497 340.912 250.568C339.981 249.497 339.17 247.768 338.106 247.499C336.695 247.033 335.162 248.363 330.621 249.369C331.455 247.381 333.994 246.982 336.266 245.646ZM327.845 226.836C332.121 225.769 336.265 224.566 340.408 223.502C339.34 221.098 338.139 218.833 336.923 216.164C332.513 216.963 327.961 217.903 323.157 218.833C324.906 221.632 326.366 224.301 327.845 226.836ZM333.459 236.84C335.201 239.509 336.801 242.043 338.404 244.447C338.512 244.584 338.662 244.683 338.83 244.731C338.998 244.779 339.176 244.772 339.34 244.712C343.217 243.644 347.227 242.578 351.235 241.379C349.901 239.11 348.563 236.975 347.227 234.84C347.13 234.687 346.988 234.567 346.822 234.496C346.654 234.424 346.47 234.405 346.291 234.441C342.147 235.242 338.004 236.041 333.459 236.84ZM345.489 232.173C344.418 230.304 343.217 228.446 342.147 226.571C341.667 225.614 339.744 226.676 328.916 228.703C330.117 230.838 331.054 232.43 332.121 234.169C332.39 234.439 332.926 234.838 333.326 234.704C337.334 233.906 341.344 233.107 345.489 232.173ZM349.631 233.772C353.05 239.356 353.751 240.977 354.579 240.977C358.064 240.443 361.528 239.776 365.136 239.11C363.933 237.107 362.864 235.242 361.651 233.372C361.275 232.602 360.282 232.674 349.631 233.772ZM339.34 215.895C343.302 223.144 342.111 223.2 346.827 222.701C349.366 222.43 351.905 222.167 354.579 221.9C353.508 219.899 352.469 218.011 351.37 216.297C351.239 216.083 351.065 215.901 350.857 215.765C350.648 215.626 350.413 215.535 350.167 215.495C346.69 215.564 343.217 215.765 339.34 215.895ZM344.553 225.502C345.756 227.635 346.827 229.37 348.038 231.105C348.165 231.266 348.326 231.399 348.511 231.492C348.696 231.585 348.899 231.635 349.106 231.639C352.716 231.237 356.191 230.703 359.933 230.304C355.108 223.096 358.904 224.477 344.553 225.502Z" fill="#191919"/>
<path d="M312.741 203.356C312.341 202.157 313.276 201.488 314.214 201.221C327.798 196.227 341.703 197.178 344.285 199.753C345.447 200.915 344.165 201.615 343.352 201.356C333.639 198.271 322.396 200.948 312.741 203.356Z" fill="#191919"/>
<path d="M41.1426 178.81C45.4007 178.85 49.5519 180.146 53.0741 182.533C56.5964 184.922 59.3324 188.297 60.938 192.233C62.5434 196.169 62.9467 200.49 62.097 204.656C61.2473 208.82 59.1826 212.642 56.1626 215.638C53.1428 218.634 49.3025 220.672 45.125 221.496C40.9474 222.318 36.6192 221.889 32.685 220.264C28.7508 218.638 25.3862 215.887 23.0142 212.359C20.6425 208.828 19.3696 204.677 19.3557 200.426C19.3841 194.681 21.6926 189.179 25.776 185.127C29.8596 181.075 35.3849 178.804 41.1426 178.81ZM37.9363 197.089C37.9363 196.954 33.5251 188.283 31.2524 183.614C29.114 185.614 27.242 187.341 25.1036 189.217C29.5148 192.016 37.8019 197.089 37.9363 197.089ZM24.302 210.025C26.4404 212.294 28.3124 214.16 30.3164 216.295C33.1244 211.76 38.4715 203.089 38.4715 202.954C38.0981 203.339 29.0169 207.675 24.302 210.025ZM23.366 208.286C28.3124 205.752 37.2667 201.081 37.2667 200.948C32.1884 200.681 27.1101 200.548 21.6285 200.281C22.1662 203.091 22.6989 205.491 23.366 208.286ZM58.1176 209.752C58.9216 207.085 59.7232 204.683 60.5248 202.149C55.0482 201.884 44.8866 201.48 44.7522 201.615C49.1633 204.29 53.44 206.959 58.1176 209.76V209.752ZM43.149 181.204C42.8802 186.67 42.4794 196.811 42.6138 196.811C45.2874 192.544 47.961 188.274 50.9009 183.605C48.2273 182.815 45.8151 182.011 43.149 181.204ZM40.0747 196.412C40.2091 196.412 40.7418 186.407 41.0107 181.071C38.3371 181.603 35.7979 182.272 33.1244 182.81C35.5291 187.614 37.8019 192.016 40.0747 196.42V196.412ZM56.9152 211.619C52.504 208.82 44.085 203.749 43.9506 203.884C46.2234 208.151 48.4937 212.421 50.7665 216.957C52.9048 215.243 54.7768 213.504 56.9152 211.628V211.619ZM36.4651 199.215C36.4651 199.08 28.4468 193.749 24.0357 190.943C23.2341 193.478 22.43 195.877 21.6285 198.414C26.9756 198.687 31.7876 198.954 36.4651 199.221V199.215ZM59.0536 192.809C54.376 195.078 49.9649 197.213 45.6882 199.345C45.6882 199.48 55.4465 200.014 60.6592 200.281C60.124 197.619 59.5888 195.219 59.0536 192.817V192.809ZM48.897 217.891C46.4897 213.355 41.9467 204.948 41.9467 204.948C41.8122 209.619 41.5434 214.423 41.4114 219.491C43.9506 218.97 46.2234 218.431 48.897 217.899V217.891ZM52.7853 184.947C50.1118 189.217 47.5726 193.084 44.899 196.954C45.031 197.089 53.4525 192.817 57.9981 190.55C56.1136 188.682 54.5105 186.815 52.7853 184.947ZM39.0167 219.365C39.4175 214.431 39.8183 205.091 39.6863 205.091C37.1472 208.959 34.74 212.961 31.9344 217.23C34.4611 218.03 36.6045 218.698 39.0042 219.365H39.0167Z" fill="#191919"/>
<path d="M394.274 148.126C396.28 148.126 398.151 147.994 400.02 148.126C401.091 148.26 403.754 151.329 404.567 151.994C402.825 151.729 398.954 151.063 398.684 150.929C397.348 150.129 396.01 149.194 394.274 148.126Z" fill="#191919"/>
<path d="M263.956 142.791C261.551 143.057 259.547 143.341 257.539 143.592C253 144.161 248.451 144.526 243.906 145.057C243.371 145.057 242.57 145.057 242.302 144.657C239.896 141.857 237.492 138.923 234.818 135.713C237.624 135.313 249.802 133.656 253.264 133.044C253.876 132.88 254.525 132.907 255.123 133.122C255.72 133.337 256.237 133.728 256.604 134.244C258.726 136.935 261.282 139.723 263.956 142.791Z" fill="#7CA4D9"/>
<path d="M323.97 134.92C324.034 134.97 324.08 135.039 324.101 135.117C324.124 135.195 324.117 135.278 324.088 135.354C324.057 135.429 324.003 135.492 323.935 135.534C323.864 135.576 323.783 135.594 323.703 135.586C321.887 135.8 314.369 136.968 306.594 137.589C304.395 137.589 305.951 137.773 297.238 128.644C297.174 128.595 297.129 128.526 297.106 128.447C297.085 128.369 297.089 128.286 297.12 128.211C297.149 128.135 297.203 128.072 297.274 128.03C297.342 127.988 297.425 127.97 297.504 127.978C314.432 125.648 314.432 125.138 315.015 125.71C318.089 128.778 320.995 131.884 323.97 134.92Z" fill="#7CA4D9"/>
<path d="M276.253 130.384C282.423 129.613 290.387 128.873 293.494 128.383C294.108 128.266 294.741 128.316 295.328 128.527C295.917 128.738 296.436 129.103 296.834 129.584C299.162 132.341 301.647 135.05 304.188 137.989C300.379 138.531 300.939 138.352 286.142 140.123C285.582 140.133 285.028 139.995 284.539 139.723C281.732 136.921 279.062 133.986 276.253 131.052V130.384Z" fill="#7CA4D9"/>
<path d="M283.337 140.523C278.792 141.057 274.376 141.318 269.97 142.262C268.437 142.678 266.806 142.56 265.35 141.928C263.891 141.296 262.694 140.187 261.952 138.784C260.489 136.838 258.927 134.968 257.272 133.181C257.222 133.115 257.189 133.037 257.176 132.955C257.162 132.873 257.168 132.789 257.195 132.71C257.222 132.632 257.268 132.56 257.328 132.503C257.388 132.446 257.461 132.404 257.541 132.381C273.836 130.642 271.505 130.796 273.314 130.642C274.114 130.642 274.519 131.171 275.056 131.708C278.016 134.452 280.784 137.398 283.337 140.523Z" fill="#7CA4D9"/>
<path d="M216.374 138.523C220.917 137.855 223.464 137.378 228.939 136.655C232.15 136.23 233.476 134.98 235.083 137.72C237.691 142.163 239.102 142.334 241.101 145.326C233.339 146.186 229.764 146.784 225.061 147.194C223.02 147.194 222.821 146.354 216.239 139.055C216.187 139.023 216.145 138.976 216.121 138.918C216.098 138.861 216.091 138.798 216.108 138.738C216.123 138.679 216.156 138.625 216.206 138.586C216.253 138.548 216.311 138.525 216.374 138.523Z" fill="#7CA4D9"/>
</svg>
