<svg width="80" height="80" viewBox="0 0 80 80" fill="none" xmlns="http://www.w3.org/2000/svg">
<g filter="url(#filter0_d_172_72)">
<circle cx="40" cy="35" r="20" fill="white"/>
</g>
<path fill-rule="evenodd" clip-rule="evenodd" d="M40 26C40.5523 26 41 26.4477 41 27V34H48C48.5523 34 49 34.4477 49 35C49 35.5523 48.5523 36 48 36H41V43C41 43.5523 40.5523 44 40 44C39.4477 44 39 43.5523 39 43V36H32C31.4477 36 31 35.5523 31 35C31 34.4477 31.4477 34 32 34H39V27C39 26.4477 39.4477 26 40 26Z" fill="#332E2D"/>
<defs>
<filter id="filter0_d_172_72" x="0" y="0" width="80" height="80" filterUnits="userSpaceOnUse" color-interpolation-filters="sRGB">
<feFlood flood-opacity="0" result="BackgroundImageFix"/>
<feColorMatrix in="SourceAlpha" type="matrix" values="0 0 0 0 0 0 0 0 0 0 0 0 0 0 0 0 0 0 127 0" result="hardAlpha"/>
<feOffset dy="5"/>
<feGaussianBlur stdDeviation="10"/>
<feComposite in2="hardAlpha" operator="out"/>
<feColorMatrix type="matrix" values="0 0 0 0 0 0 0 0 0 0 0 0 0 0 0 0 0 0 0.1 0"/>
<feBlend mode="normal" in2="BackgroundImageFix" result="effect1_dropShadow_172_72"/>
<feBlend mode="normal" in="SourceGraphic" in2="effect1_dropShadow_172_72" result="shape"/>
</filter>
</defs>
</svg>
