<svg width="205" height="20" viewBox="0 0 205 20" fill="none" xmlns="http://www.w3.org/2000/svg">
<mask id="path-1-outside-1_171_258" maskUnits="userSpaceOnUse" x="0" y="0" width="98" height="20" fill="black">
<rect fill="white" width="98" height="20"/>
<path d="M1 1H4.9925V18.9151H1V1Z"/>
<path d="M8.9936 5.99063H12.7302C12.6961 6.48543 12.6107 6.93757 12.4742 7.34706C12.3548 7.75655 12.1501 8.20869 11.86 8.70349L12.9093 9.26653C13.4212 8.07219 14.0525 7.18497 14.8032 6.60486C15.571 6.02475 16.4838 5.7347 17.5417 5.7347C18.9919 5.7347 20.118 6.24656 20.9199 7.27028C21.7218 8.294 22.1228 9.71867 22.1228 11.5443V18.9151H18.335V12.2097C18.335 11.1519 18.0962 10.35 17.6184 9.80398C17.1578 9.24094 16.4753 8.95942 15.571 8.95942C14.6667 8.95942 13.9757 9.24094 13.498 9.80398C13.0202 10.35 12.7814 11.1519 12.7814 12.2097V18.9151H8.9936V5.99063Z"/>
<path d="M23.9601 5.99063H28.055C28.8569 7.88451 29.437 9.35184 29.7953 10.3926C30.1707 11.4163 30.4266 12.3121 30.5631 13.0799C30.7166 13.8306 30.8105 14.7264 30.8446 15.7671H32.0475C32.0816 14.7264 32.1669 13.8306 32.3034 13.0799C32.457 12.3121 32.7129 11.4163 33.0712 10.3926C33.4466 9.35184 34.0352 7.88451 34.8371 5.99063H38.932L33.5575 18.9151H29.3346L23.9601 5.99063Z"/>
<path d="M47.4361 19.2478C46.054 19.2478 44.8085 18.9577 43.6995 18.3776C42.6075 17.7805 41.7459 16.97 41.1146 15.9463C40.5004 14.9226 40.1932 13.7624 40.1932 12.4657C40.1932 11.1689 40.5004 10.0087 41.1146 8.98501C41.7459 7.94423 42.616 7.13378 43.7251 6.55368C44.8341 5.97357 46.0796 5.68351 47.4616 5.68351C48.8607 5.68351 50.1148 5.9821 51.2238 6.57927C52.3328 7.15938 53.1945 7.96982 53.8087 9.0106C54.4229 10.0343 54.73 11.1945 54.73 12.4912C54.73 12.8666 54.7045 13.2505 54.6533 13.6429H43.8786C44.0492 14.4619 44.4502 15.1188 45.0815 15.6136C45.7299 16.1084 46.5147 16.3558 47.4361 16.3558C48.1185 16.3558 48.7328 16.2278 49.2787 15.9719C49.8247 15.6989 49.8954 15.5835 50.6096 15.4946H54.3717C53.8599 16.8596 52.9812 17.2686 51.7357 18.0705C50.5072 18.8554 49.074 19.2478 47.4361 19.2478ZM51.0958 11.314C50.9082 10.4609 50.4901 9.78692 49.8418 9.29212C49.1934 8.79733 48.4001 8.54993 47.4616 8.54993C46.5232 8.54993 45.7299 8.80586 45.0815 9.31772C44.4502 9.81251 44.0407 10.4779 43.853 11.314H51.0958Z"/>
<path d="M57.8052 5.99063H61.3882C61.3712 6.50249 61.2944 7.00582 61.1579 7.50062C61.0384 7.97835 60.8337 8.55846 60.5436 9.24094L61.7209 9.7528C62.1475 8.4049 62.702 7.4409 63.3845 6.86079C64.084 6.28068 65.031 5.99063 66.2253 5.99063C66.5836 5.99063 66.8566 5.99916 67.0443 6.01622V9.54805C66.5324 9.51393 66.1656 9.49687 65.9438 9.49687C64.3741 9.49687 63.2565 9.84664 62.5911 10.5462C61.9257 11.2457 61.593 12.3889 61.593 13.9756V18.9151H57.8052V5.99063Z"/>
<path d="M74.7504 19.2478C72.9077 19.2478 71.4489 18.8554 70.3739 18.0705C69.299 17.2686 68.7616 16.1766 68.7616 14.7946H72.3702C72.3702 15.3235 72.575 15.7416 72.9844 16.0487C73.3939 16.3387 73.974 16.4837 74.7248 16.4837C75.3731 16.4837 75.8764 16.3728 76.2347 16.151C76.6101 15.9292 76.7978 15.6136 76.7978 15.2041C76.7978 14.7434 76.5589 14.4107 76.0812 14.206C75.6205 14.0012 74.8783 13.7965 73.8546 13.5917C72.8309 13.387 71.9863 13.1737 71.3209 12.9519C70.6725 12.7301 70.1095 12.3633 69.6318 11.8514C69.1711 11.3225 68.9407 10.6059 68.9407 9.70161C68.9407 8.37078 69.4526 7.37265 70.4763 6.70723C71.5 6.02475 72.8053 5.68351 74.3921 5.68351C76.1153 5.68351 77.4973 6.07594 78.5381 6.86079C79.5789 7.62858 80.1078 8.66083 80.1249 9.95754H76.593C76.576 9.47981 76.3712 9.10444 75.9788 8.83145C75.6034 8.5414 75.0831 8.39637 74.4176 8.39637C73.8546 8.39637 73.4025 8.50727 73.0612 8.72908C72.72 8.93382 72.5494 9.22388 72.5494 9.59924C72.5494 10.0429 72.7797 10.367 73.2404 10.5718C73.7181 10.7595 74.4688 10.9557 75.4925 11.1604C76.5333 11.3652 77.3864 11.5784 78.0518 11.8002C78.7343 12.022 79.3144 12.3974 79.7922 12.9263C80.287 13.4552 80.5344 14.1719 80.5344 15.0761C80.5344 16.3558 80.014 17.371 78.9732 18.1217C77.9324 18.8724 76.5248 19.2478 74.7504 19.2478Z"/>
<path d="M90.1743 19.2478C88.7923 19.2478 87.5468 18.9577 86.4377 18.3776C85.3458 17.7805 84.4841 16.97 83.8529 15.9463C83.2386 14.9226 82.9315 13.7624 82.9315 12.4657C82.9315 11.1689 83.2386 10.0087 83.8529 8.98501C84.4841 7.94423 85.3543 7.13378 86.4633 6.55368C87.5724 5.97357 88.8179 5.68351 90.1999 5.68351C91.599 5.68351 92.8531 5.9821 93.9621 6.57927C95.0711 7.15938 95.9327 7.96982 96.547 9.0106C97.1612 10.0343 97.4683 11.1945 97.4683 12.4912C97.4683 12.8666 97.4427 13.2505 97.3915 13.6429H86.6169C86.7875 14.4619 87.1885 15.1188 87.8198 15.6136C88.4681 16.1084 89.253 16.3558 90.1743 16.3558C90.8568 16.3558 91.471 16.2278 92.017 15.9719C92.563 15.6989 92.7209 15.6136 93.3478 15.4946H97.11C96.5981 16.8596 95.7195 17.2686 94.4739 18.0705C93.2455 18.8554 91.8123 19.2478 90.1743 19.2478ZM93.8341 11.314C93.6464 10.4609 93.2284 9.78692 92.5801 9.29212C91.9317 8.79733 91.1383 8.54993 90.1999 8.54993C89.2615 8.54993 88.4681 8.80586 87.8198 9.31772C87.1885 9.81251 86.779 10.4779 86.5913 11.314H93.8341Z"/>
</mask>
<path d="M1 1H4.9925V18.9151H1V1Z" fill="#191919"/>
<path d="M8.9936 5.99063H12.7302C12.6961 6.48543 12.6107 6.93757 12.4742 7.34706C12.3548 7.75655 12.1501 8.20869 11.86 8.70349L12.9093 9.26653C13.4212 8.07219 14.0525 7.18497 14.8032 6.60486C15.571 6.02475 16.4838 5.7347 17.5417 5.7347C18.9919 5.7347 20.118 6.24656 20.9199 7.27028C21.7218 8.294 22.1228 9.71867 22.1228 11.5443V18.9151H18.335V12.2097C18.335 11.1519 18.0962 10.35 17.6184 9.80398C17.1578 9.24094 16.4753 8.95942 15.571 8.95942C14.6667 8.95942 13.9757 9.24094 13.498 9.80398C13.0202 10.35 12.7814 11.1519 12.7814 12.2097V18.9151H8.9936V5.99063Z" fill="#191919"/>
<path d="M23.9601 5.99063H28.055C28.8569 7.88451 29.437 9.35184 29.7953 10.3926C30.1707 11.4163 30.4266 12.3121 30.5631 13.0799C30.7166 13.8306 30.8105 14.7264 30.8446 15.7671H32.0475C32.0816 14.7264 32.1669 13.8306 32.3034 13.0799C32.457 12.3121 32.7129 11.4163 33.0712 10.3926C33.4466 9.35184 34.0352 7.88451 34.8371 5.99063H38.932L33.5575 18.9151H29.3346L23.9601 5.99063Z" fill="#191919"/>
<path d="M47.4361 19.2478C46.054 19.2478 44.8085 18.9577 43.6995 18.3776C42.6075 17.7805 41.7459 16.97 41.1146 15.9463C40.5004 14.9226 40.1932 13.7624 40.1932 12.4657C40.1932 11.1689 40.5004 10.0087 41.1146 8.98501C41.7459 7.94423 42.616 7.13378 43.7251 6.55368C44.8341 5.97357 46.0796 5.68351 47.4616 5.68351C48.8607 5.68351 50.1148 5.9821 51.2238 6.57927C52.3328 7.15938 53.1945 7.96982 53.8087 9.0106C54.4229 10.0343 54.73 11.1945 54.73 12.4912C54.73 12.8666 54.7045 13.2505 54.6533 13.6429H43.8786C44.0492 14.4619 44.4502 15.1188 45.0815 15.6136C45.7299 16.1084 46.5147 16.3558 47.4361 16.3558C48.1185 16.3558 48.7328 16.2278 49.2787 15.9719C49.8247 15.6989 49.8954 15.5835 50.6096 15.4946H54.3717C53.8599 16.8596 52.9812 17.2686 51.7357 18.0705C50.5072 18.8554 49.074 19.2478 47.4361 19.2478ZM51.0958 11.314C50.9082 10.4609 50.4901 9.78692 49.8418 9.29212C49.1934 8.79733 48.4001 8.54993 47.4616 8.54993C46.5232 8.54993 45.7299 8.80586 45.0815 9.31772C44.4502 9.81251 44.0407 10.4779 43.853 11.314H51.0958Z" fill="#191919"/>
<path d="M57.8052 5.99063H61.3882C61.3712 6.50249 61.2944 7.00582 61.1579 7.50062C61.0384 7.97835 60.8337 8.55846 60.5436 9.24094L61.7209 9.7528C62.1475 8.4049 62.702 7.4409 63.3845 6.86079C64.084 6.28068 65.031 5.99063 66.2253 5.99063C66.5836 5.99063 66.8566 5.99916 67.0443 6.01622V9.54805C66.5324 9.51393 66.1656 9.49687 65.9438 9.49687C64.3741 9.49687 63.2565 9.84664 62.5911 10.5462C61.9257 11.2457 61.593 12.3889 61.593 13.9756V18.9151H57.8052V5.99063Z" fill="#191919"/>
<path d="M74.7504 19.2478C72.9077 19.2478 71.4489 18.8554 70.3739 18.0705C69.299 17.2686 68.7616 16.1766 68.7616 14.7946H72.3702C72.3702 15.3235 72.575 15.7416 72.9844 16.0487C73.3939 16.3387 73.974 16.4837 74.7248 16.4837C75.3731 16.4837 75.8764 16.3728 76.2347 16.151C76.6101 15.9292 76.7978 15.6136 76.7978 15.2041C76.7978 14.7434 76.5589 14.4107 76.0812 14.206C75.6205 14.0012 74.8783 13.7965 73.8546 13.5917C72.8309 13.387 71.9863 13.1737 71.3209 12.9519C70.6725 12.7301 70.1095 12.3633 69.6318 11.8514C69.1711 11.3225 68.9407 10.6059 68.9407 9.70161C68.9407 8.37078 69.4526 7.37265 70.4763 6.70723C71.5 6.02475 72.8053 5.68351 74.3921 5.68351C76.1153 5.68351 77.4973 6.07594 78.5381 6.86079C79.5789 7.62858 80.1078 8.66083 80.1249 9.95754H76.593C76.576 9.47981 76.3712 9.10444 75.9788 8.83145C75.6034 8.5414 75.0831 8.39637 74.4176 8.39637C73.8546 8.39637 73.4025 8.50727 73.0612 8.72908C72.72 8.93382 72.5494 9.22388 72.5494 9.59924C72.5494 10.0429 72.7797 10.367 73.2404 10.5718C73.7181 10.7595 74.4688 10.9557 75.4925 11.1604C76.5333 11.3652 77.3864 11.5784 78.0518 11.8002C78.7343 12.022 79.3144 12.3974 79.7922 12.9263C80.287 13.4552 80.5344 14.1719 80.5344 15.0761C80.5344 16.3558 80.014 17.371 78.9732 18.1217C77.9324 18.8724 76.5248 19.2478 74.7504 19.2478Z" fill="#191919"/>
<path d="M90.1743 19.2478C88.7923 19.2478 87.5468 18.9577 86.4377 18.3776C85.3458 17.7805 84.4841 16.97 83.8529 15.9463C83.2386 14.9226 82.9315 13.7624 82.9315 12.4657C82.9315 11.1689 83.2386 10.0087 83.8529 8.98501C84.4841 7.94423 85.3543 7.13378 86.4633 6.55368C87.5724 5.97357 88.8179 5.68351 90.1999 5.68351C91.599 5.68351 92.8531 5.9821 93.9621 6.57927C95.0711 7.15938 95.9327 7.96982 96.547 9.0106C97.1612 10.0343 97.4683 11.1945 97.4683 12.4912C97.4683 12.8666 97.4427 13.2505 97.3915 13.6429H86.6169C86.7875 14.4619 87.1885 15.1188 87.8198 15.6136C88.4681 16.1084 89.253 16.3558 90.1743 16.3558C90.8568 16.3558 91.471 16.2278 92.017 15.9719C92.563 15.6989 92.7209 15.6136 93.3478 15.4946H97.11C96.5981 16.8596 95.7195 17.2686 94.4739 18.0705C93.2455 18.8554 91.8123 19.2478 90.1743 19.2478ZM93.8341 11.314C93.6464 10.4609 93.2284 9.78692 92.5801 9.29212C91.9317 8.79733 91.1383 8.54993 90.1999 8.54993C89.2615 8.54993 88.4681 8.80586 87.8198 9.31772C87.1885 9.81251 86.779 10.4779 86.5913 11.314H93.8341Z" fill="#191919"/>
<path d="M1 1H4.9925V18.9151H1V1Z" stroke="#191919" stroke-width="0.6" mask="url(#path-1-outside-1_171_258)"/>
<path d="M8.9936 5.99063H12.7302C12.6961 6.48543 12.6107 6.93757 12.4742 7.34706C12.3548 7.75655 12.1501 8.20869 11.86 8.70349L12.9093 9.26653C13.4212 8.07219 14.0525 7.18497 14.8032 6.60486C15.571 6.02475 16.4838 5.7347 17.5417 5.7347C18.9919 5.7347 20.118 6.24656 20.9199 7.27028C21.7218 8.294 22.1228 9.71867 22.1228 11.5443V18.9151H18.335V12.2097C18.335 11.1519 18.0962 10.35 17.6184 9.80398C17.1578 9.24094 16.4753 8.95942 15.571 8.95942C14.6667 8.95942 13.9757 9.24094 13.498 9.80398C13.0202 10.35 12.7814 11.1519 12.7814 12.2097V18.9151H8.9936V5.99063Z" stroke="#191919" stroke-width="0.6" mask="url(#path-1-outside-1_171_258)"/>
<path d="M23.9601 5.99063H28.055C28.8569 7.88451 29.437 9.35184 29.7953 10.3926C30.1707 11.4163 30.4266 12.3121 30.5631 13.0799C30.7166 13.8306 30.8105 14.7264 30.8446 15.7671H32.0475C32.0816 14.7264 32.1669 13.8306 32.3034 13.0799C32.457 12.3121 32.7129 11.4163 33.0712 10.3926C33.4466 9.35184 34.0352 7.88451 34.8371 5.99063H38.932L33.5575 18.9151H29.3346L23.9601 5.99063Z" stroke="#191919" stroke-width="0.6" mask="url(#path-1-outside-1_171_258)"/>
<path d="M47.4361 19.2478C46.054 19.2478 44.8085 18.9577 43.6995 18.3776C42.6075 17.7805 41.7459 16.97 41.1146 15.9463C40.5004 14.9226 40.1932 13.7624 40.1932 12.4657C40.1932 11.1689 40.5004 10.0087 41.1146 8.98501C41.7459 7.94423 42.616 7.13378 43.7251 6.55368C44.8341 5.97357 46.0796 5.68351 47.4616 5.68351C48.8607 5.68351 50.1148 5.9821 51.2238 6.57927C52.3328 7.15938 53.1945 7.96982 53.8087 9.0106C54.4229 10.0343 54.73 11.1945 54.73 12.4912C54.73 12.8666 54.7045 13.2505 54.6533 13.6429H43.8786C44.0492 14.4619 44.4502 15.1188 45.0815 15.6136C45.7299 16.1084 46.5147 16.3558 47.4361 16.3558C48.1185 16.3558 48.7328 16.2278 49.2787 15.9719C49.8247 15.6989 49.8954 15.5835 50.6096 15.4946H54.3717C53.8599 16.8596 52.9812 17.2686 51.7357 18.0705C50.5072 18.8554 49.074 19.2478 47.4361 19.2478ZM51.0958 11.314C50.9082 10.4609 50.4901 9.78692 49.8418 9.29212C49.1934 8.79733 48.4001 8.54993 47.4616 8.54993C46.5232 8.54993 45.7299 8.80586 45.0815 9.31772C44.4502 9.81251 44.0407 10.4779 43.853 11.314H51.0958Z" stroke="#191919" stroke-width="0.6" mask="url(#path-1-outside-1_171_258)"/>
<path d="M57.8052 5.99063H61.3882C61.3712 6.50249 61.2944 7.00582 61.1579 7.50062C61.0384 7.97835 60.8337 8.55846 60.5436 9.24094L61.7209 9.7528C62.1475 8.4049 62.702 7.4409 63.3845 6.86079C64.084 6.28068 65.031 5.99063 66.2253 5.99063C66.5836 5.99063 66.8566 5.99916 67.0443 6.01622V9.54805C66.5324 9.51393 66.1656 9.49687 65.9438 9.49687C64.3741 9.49687 63.2565 9.84664 62.5911 10.5462C61.9257 11.2457 61.593 12.3889 61.593 13.9756V18.9151H57.8052V5.99063Z" stroke="#191919" stroke-width="0.6" mask="url(#path-1-outside-1_171_258)"/>
<path d="M74.7504 19.2478C72.9077 19.2478 71.4489 18.8554 70.3739 18.0705C69.299 17.2686 68.7616 16.1766 68.7616 14.7946H72.3702C72.3702 15.3235 72.575 15.7416 72.9844 16.0487C73.3939 16.3387 73.974 16.4837 74.7248 16.4837C75.3731 16.4837 75.8764 16.3728 76.2347 16.151C76.6101 15.9292 76.7978 15.6136 76.7978 15.2041C76.7978 14.7434 76.5589 14.4107 76.0812 14.206C75.6205 14.0012 74.8783 13.7965 73.8546 13.5917C72.8309 13.387 71.9863 13.1737 71.3209 12.9519C70.6725 12.7301 70.1095 12.3633 69.6318 11.8514C69.1711 11.3225 68.9407 10.6059 68.9407 9.70161C68.9407 8.37078 69.4526 7.37265 70.4763 6.70723C71.5 6.02475 72.8053 5.68351 74.3921 5.68351C76.1153 5.68351 77.4973 6.07594 78.5381 6.86079C79.5789 7.62858 80.1078 8.66083 80.1249 9.95754H76.593C76.576 9.47981 76.3712 9.10444 75.9788 8.83145C75.6034 8.5414 75.0831 8.39637 74.4176 8.39637C73.8546 8.39637 73.4025 8.50727 73.0612 8.72908C72.72 8.93382 72.5494 9.22388 72.5494 9.59924C72.5494 10.0429 72.7797 10.367 73.2404 10.5718C73.7181 10.7595 74.4688 10.9557 75.4925 11.1604C76.5333 11.3652 77.3864 11.5784 78.0518 11.8002C78.7343 12.022 79.3144 12.3974 79.7922 12.9263C80.287 13.4552 80.5344 14.1719 80.5344 15.0761C80.5344 16.3558 80.014 17.371 78.9732 18.1217C77.9324 18.8724 76.5248 19.2478 74.7504 19.2478Z" stroke="#191919" stroke-width="0.6" mask="url(#path-1-outside-1_171_258)"/>
<path d="M90.1743 19.2478C88.7923 19.2478 87.5468 18.9577 86.4377 18.3776C85.3458 17.7805 84.4841 16.97 83.8529 15.9463C83.2386 14.9226 82.9315 13.7624 82.9315 12.4657C82.9315 11.1689 83.2386 10.0087 83.8529 8.98501C84.4841 7.94423 85.3543 7.13378 86.4633 6.55368C87.5724 5.97357 88.8179 5.68351 90.1999 5.68351C91.599 5.68351 92.8531 5.9821 93.9621 6.57927C95.0711 7.15938 95.9327 7.96982 96.547 9.0106C97.1612 10.0343 97.4683 11.1945 97.4683 12.4912C97.4683 12.8666 97.4427 13.2505 97.3915 13.6429H86.6169C86.7875 14.4619 87.1885 15.1188 87.8198 15.6136C88.4681 16.1084 89.253 16.3558 90.1743 16.3558C90.8568 16.3558 91.471 16.2278 92.017 15.9719C92.563 15.6989 92.7209 15.6136 93.3478 15.4946H97.11C96.5981 16.8596 95.7195 17.2686 94.4739 18.0705C93.2455 18.8554 91.8123 19.2478 90.1743 19.2478ZM93.8341 11.314C93.6464 10.4609 93.2284 9.78692 92.5801 9.29212C91.9317 8.79733 91.1383 8.54993 90.1999 8.54993C89.2615 8.54993 88.4681 8.80586 87.8198 9.31772C87.1885 9.81251 86.779 10.4779 86.5913 11.314H93.8341Z" stroke="#191919" stroke-width="0.6" mask="url(#path-1-outside-1_171_258)"/>
<mask id="path-2-outside-2_171_258" maskUnits="userSpaceOnUse" x="99.3861" y="0" width="105" height="20" fill="black">
<rect fill="white" x="99.3861" width="105" height="20"/>
<path d="M105.991 4.58302H100.386V1H115.588V4.58302H109.983V18.9151H105.991V4.58302Z"/>
<path d="M116.832 5.99063H120.415C120.398 6.50249 120.322 7.00582 120.185 7.50062C120.066 7.97835 119.861 8.55846 119.571 9.24094L120.748 9.7528C121.175 8.4049 121.729 7.4409 122.412 6.86079C123.111 6.28068 124.058 5.99063 125.252 5.99063C125.611 5.99063 125.884 5.99916 126.071 6.01622V9.54805C125.56 9.51393 125.193 9.49687 124.971 9.49687C123.401 9.49687 122.284 9.84664 121.618 10.5462C120.953 11.2457 120.62 12.3889 120.62 13.9756V18.9151H116.832V5.99063Z"/>
<path d="M131.969 19.2222C130.536 19.2222 129.393 18.8895 128.54 18.2241C127.704 17.5416 127.286 16.6288 127.286 15.4856C127.286 14.3937 127.653 13.4979 128.386 12.7984C129.12 12.0988 130.127 11.6808 131.406 11.5443L135.527 11.1348C136.022 11.0836 136.406 10.9471 136.679 10.7253C136.969 10.4865 137.114 10.1879 137.114 9.82958C137.114 9.40303 136.9 9.07032 136.474 8.83145C136.047 8.59258 135.45 8.47315 134.682 8.47315C133.863 8.47315 133.189 8.62671 132.66 8.93382C132.149 9.22388 131.824 9.65042 131.688 10.2135H127.951C128.224 8.78026 128.941 7.67124 130.101 6.88638C131.278 6.08447 132.788 5.68351 134.631 5.68351C136.627 5.68351 138.163 6.16125 139.238 7.11672C140.33 8.05513 140.876 9.40303 140.876 11.1604V14.7434C140.876 15.2041 140.995 15.5112 141.234 15.6648C141.473 15.8013 141.942 15.8439 142.642 15.7927V18.9151C142.215 18.9663 141.814 18.9919 141.439 18.9919C139.528 18.9919 138.572 18.335 138.572 17.0212C138.572 16.6629 138.632 16.2961 138.752 15.9207L137.677 15.5624C137.199 16.7397 136.465 17.644 135.476 18.2753C134.503 18.9066 133.334 19.2222 131.969 19.2222ZM132.968 16.4582C134.025 16.4582 134.955 16.1254 135.757 15.46C136.576 14.7946 137.199 13.8562 137.625 12.6448L136.679 12.1074C136.371 12.551 136.03 12.8837 135.655 13.1055C135.279 13.3102 134.768 13.4552 134.119 13.5406L132.712 13.7197C132.166 13.788 131.739 13.95 131.432 14.206C131.142 14.4619 130.997 14.7861 130.997 15.1785C130.997 15.5709 131.168 15.8866 131.509 16.1254C131.85 16.3473 132.336 16.4582 132.968 16.4582Z"/>
<path d="M152 19.2478C150.635 19.2478 149.406 18.9577 148.314 18.3776C147.222 17.7805 146.361 16.97 145.729 15.9463C145.115 14.9055 144.808 13.7453 144.808 12.4657C144.808 11.186 145.115 10.0343 145.729 9.0106C146.361 7.96982 147.222 7.15938 148.314 6.57927C149.406 5.9821 150.635 5.68351 152 5.68351C153.211 5.68351 154.32 5.91385 155.327 6.37453C156.35 6.8352 157.195 7.47502 157.86 8.294C158.526 9.11297 158.952 10.0514 159.14 11.1092H155.557C155.301 10.4097 154.866 9.8637 154.252 9.47128C153.655 9.07885 152.955 8.88264 152.153 8.88264C151.095 8.88264 150.225 9.21535 149.543 9.88076C148.877 10.5462 148.544 11.4078 148.544 12.4657C148.544 13.5235 148.877 14.3851 149.543 15.0505C150.208 15.6989 151.078 16.0231 152.153 16.0231C153.006 16.0231 153.74 15.8098 154.354 15.3833C154.985 14.9396 155.412 14.3425 155.634 13.5917H159.191C159.021 14.6837 158.603 15.6648 157.937 16.5349C157.272 17.388 156.427 18.0535 155.403 18.5312C154.38 19.0089 153.245 19.2478 152 19.2478Z"/>
<path d="M171.46 18.9151C170.555 17.4989 169.813 16.4496 169.233 15.7671C168.67 15.0847 168.15 14.6155 167.672 14.3595C167.194 14.0865 166.631 13.933 165.983 13.8989V18.9151H162.195V1H165.983V10.5718C166.597 10.5547 167.117 10.4353 167.544 10.2135C167.987 9.9746 168.465 9.54805 168.977 8.93382C169.506 8.31959 170.231 7.33853 171.152 5.99063H175.631C174.608 7.57739 173.763 8.75467 173.098 9.52246C172.449 10.2902 171.818 10.8362 171.204 11.1604C170.607 11.4675 169.873 11.6552 169.003 11.7235V12.824C169.924 12.8922 170.709 13.1055 171.357 13.4638C172.023 13.8221 172.697 14.4107 173.379 15.2297C174.079 16.0487 174.949 17.2771 175.99 18.9151H171.46Z"/>
<path d="M184.392 19.2478C183.01 19.2478 181.764 18.9577 180.655 18.3776C179.563 17.7805 178.702 16.97 178.07 15.9463C177.456 14.9226 177.149 13.7624 177.149 12.4657C177.149 11.1689 177.456 10.0087 178.07 8.98501C178.702 7.94423 179.572 7.13378 180.681 6.55368C181.79 5.97357 183.035 5.68351 184.417 5.68351C185.817 5.68351 187.071 5.9821 188.18 6.57927C189.289 7.15938 190.15 7.96982 190.765 9.0106C191.379 10.0343 191.686 11.1945 191.686 12.4912C191.686 12.8666 191.66 13.2505 191.609 13.6429H180.834C181.005 14.4619 181.406 15.1188 182.037 15.6136C182.686 16.1084 183.471 16.3558 184.392 16.3558C185.074 16.3558 185.689 16.2278 186.235 15.9719C186.781 15.6989 186.802 15.5835 187.565 15.4946H191.328C190.816 16.8596 189.937 17.2686 188.691 18.0705C187.463 18.8554 186.03 19.2478 184.392 19.2478ZM188.052 11.314C187.864 10.4609 187.446 9.78692 186.798 9.29212C186.149 8.79733 185.356 8.54993 184.417 8.54993C183.479 8.54993 182.686 8.80586 182.037 9.31772C181.406 9.81251 180.997 10.4779 180.809 11.314H188.052Z"/>
<path d="M194.761 5.99063H198.344C198.327 6.50249 198.25 7.00582 198.114 7.50062C197.994 7.97835 197.79 8.55846 197.499 9.24094L198.677 9.7528C199.103 8.4049 199.658 7.4409 200.34 6.86079C201.04 6.28068 201.987 5.99063 203.181 5.99063C203.539 5.99063 203.812 5.99916 204 6.01622V9.54805C203.488 9.51393 203.121 9.49687 202.9 9.49687C201.33 9.49687 200.212 9.84664 199.547 10.5462C198.881 11.2457 198.549 12.3889 198.549 13.9756V18.9151H194.761V5.99063Z"/>
</mask>
<path d="M105.991 4.58302H100.386V1H115.588V4.58302H109.983V18.9151H105.991V4.58302Z" fill="#7CA4D9"/>
<path d="M116.832 5.99063H120.415C120.398 6.50249 120.322 7.00582 120.185 7.50062C120.066 7.97835 119.861 8.55846 119.571 9.24094L120.748 9.7528C121.175 8.4049 121.729 7.4409 122.412 6.86079C123.111 6.28068 124.058 5.99063 125.252 5.99063C125.611 5.99063 125.884 5.99916 126.071 6.01622V9.54805C125.56 9.51393 125.193 9.49687 124.971 9.49687C123.401 9.49687 122.284 9.84664 121.618 10.5462C120.953 11.2457 120.62 12.3889 120.62 13.9756V18.9151H116.832V5.99063Z" fill="#7CA4D9"/>
<path d="M131.969 19.2222C130.536 19.2222 129.393 18.8895 128.54 18.2241C127.704 17.5416 127.286 16.6288 127.286 15.4856C127.286 14.3937 127.653 13.4979 128.386 12.7984C129.12 12.0988 130.127 11.6808 131.406 11.5443L135.527 11.1348C136.022 11.0836 136.406 10.9471 136.679 10.7253C136.969 10.4865 137.114 10.1879 137.114 9.82958C137.114 9.40303 136.9 9.07032 136.474 8.83145C136.047 8.59258 135.45 8.47315 134.682 8.47315C133.863 8.47315 133.189 8.62671 132.66 8.93382C132.149 9.22388 131.824 9.65042 131.688 10.2135H127.951C128.224 8.78026 128.941 7.67124 130.101 6.88638C131.278 6.08447 132.788 5.68351 134.631 5.68351C136.627 5.68351 138.163 6.16125 139.238 7.11672C140.33 8.05513 140.876 9.40303 140.876 11.1604V14.7434C140.876 15.2041 140.995 15.5112 141.234 15.6648C141.473 15.8013 141.942 15.8439 142.642 15.7927V18.9151C142.215 18.9663 141.814 18.9919 141.439 18.9919C139.528 18.9919 138.572 18.335 138.572 17.0212C138.572 16.6629 138.632 16.2961 138.752 15.9207L137.677 15.5624C137.199 16.7397 136.465 17.644 135.476 18.2753C134.503 18.9066 133.334 19.2222 131.969 19.2222ZM132.968 16.4582C134.025 16.4582 134.955 16.1254 135.757 15.46C136.576 14.7946 137.199 13.8562 137.625 12.6448L136.679 12.1074C136.371 12.551 136.03 12.8837 135.655 13.1055C135.279 13.3102 134.768 13.4552 134.119 13.5406L132.712 13.7197C132.166 13.788 131.739 13.95 131.432 14.206C131.142 14.4619 130.997 14.7861 130.997 15.1785C130.997 15.5709 131.168 15.8866 131.509 16.1254C131.85 16.3473 132.336 16.4582 132.968 16.4582Z" fill="#7CA4D9"/>
<path d="M152 19.2478C150.635 19.2478 149.406 18.9577 148.314 18.3776C147.222 17.7805 146.361 16.97 145.729 15.9463C145.115 14.9055 144.808 13.7453 144.808 12.4657C144.808 11.186 145.115 10.0343 145.729 9.0106C146.361 7.96982 147.222 7.15938 148.314 6.57927C149.406 5.9821 150.635 5.68351 152 5.68351C153.211 5.68351 154.32 5.91385 155.327 6.37453C156.35 6.8352 157.195 7.47502 157.86 8.294C158.526 9.11297 158.952 10.0514 159.14 11.1092H155.557C155.301 10.4097 154.866 9.8637 154.252 9.47128C153.655 9.07885 152.955 8.88264 152.153 8.88264C151.095 8.88264 150.225 9.21535 149.543 9.88076C148.877 10.5462 148.544 11.4078 148.544 12.4657C148.544 13.5235 148.877 14.3851 149.543 15.0505C150.208 15.6989 151.078 16.0231 152.153 16.0231C153.006 16.0231 153.74 15.8098 154.354 15.3833C154.985 14.9396 155.412 14.3425 155.634 13.5917H159.191C159.021 14.6837 158.603 15.6648 157.937 16.5349C157.272 17.388 156.427 18.0535 155.403 18.5312C154.38 19.0089 153.245 19.2478 152 19.2478Z" fill="#7CA4D9"/>
<path d="M171.46 18.9151C170.555 17.4989 169.813 16.4496 169.233 15.7671C168.67 15.0847 168.15 14.6155 167.672 14.3595C167.194 14.0865 166.631 13.933 165.983 13.8989V18.9151H162.195V1H165.983V10.5718C166.597 10.5547 167.117 10.4353 167.544 10.2135C167.987 9.9746 168.465 9.54805 168.977 8.93382C169.506 8.31959 170.231 7.33853 171.152 5.99063H175.631C174.608 7.57739 173.763 8.75467 173.098 9.52246C172.449 10.2902 171.818 10.8362 171.204 11.1604C170.607 11.4675 169.873 11.6552 169.003 11.7235V12.824C169.924 12.8922 170.709 13.1055 171.357 13.4638C172.023 13.8221 172.697 14.4107 173.379 15.2297C174.079 16.0487 174.949 17.2771 175.99 18.9151H171.46Z" fill="#7CA4D9"/>
<path d="M184.392 19.2478C183.01 19.2478 181.764 18.9577 180.655 18.3776C179.563 17.7805 178.702 16.97 178.07 15.9463C177.456 14.9226 177.149 13.7624 177.149 12.4657C177.149 11.1689 177.456 10.0087 178.07 8.98501C178.702 7.94423 179.572 7.13378 180.681 6.55368C181.79 5.97357 183.035 5.68351 184.417 5.68351C185.817 5.68351 187.071 5.9821 188.18 6.57927C189.289 7.15938 190.15 7.96982 190.765 9.0106C191.379 10.0343 191.686 11.1945 191.686 12.4912C191.686 12.8666 191.66 13.2505 191.609 13.6429H180.834C181.005 14.4619 181.406 15.1188 182.037 15.6136C182.686 16.1084 183.471 16.3558 184.392 16.3558C185.074 16.3558 185.689 16.2278 186.235 15.9719C186.781 15.6989 186.802 15.5835 187.565 15.4946H191.328C190.816 16.8596 189.937 17.2686 188.691 18.0705C187.463 18.8554 186.03 19.2478 184.392 19.2478ZM188.052 11.314C187.864 10.4609 187.446 9.78692 186.798 9.29212C186.149 8.79733 185.356 8.54993 184.417 8.54993C183.479 8.54993 182.686 8.80586 182.037 9.31772C181.406 9.81251 180.997 10.4779 180.809 11.314H188.052Z" fill="#7CA4D9"/>
<path d="M194.761 5.99063H198.344C198.327 6.50249 198.25 7.00582 198.114 7.50062C197.994 7.97835 197.79 8.55846 197.499 9.24094L198.677 9.7528C199.103 8.4049 199.658 7.4409 200.34 6.86079C201.04 6.28068 201.987 5.99063 203.181 5.99063C203.539 5.99063 203.812 5.99916 204 6.01622V9.54805C203.488 9.51393 203.121 9.49687 202.9 9.49687C201.33 9.49687 200.212 9.84664 199.547 10.5462C198.881 11.2457 198.549 12.3889 198.549 13.9756V18.9151H194.761V5.99063Z" fill="#7CA4D9"/>
<path d="M105.991 4.58302H100.386V1H115.588V4.58302H109.983V18.9151H105.991V4.58302Z" stroke="#7CA4D9" stroke-width="0.6" mask="url(#path-2-outside-2_171_258)"/>
<path d="M116.832 5.99063H120.415C120.398 6.50249 120.322 7.00582 120.185 7.50062C120.066 7.97835 119.861 8.55846 119.571 9.24094L120.748 9.7528C121.175 8.4049 121.729 7.4409 122.412 6.86079C123.111 6.28068 124.058 5.99063 125.252 5.99063C125.611 5.99063 125.884 5.99916 126.071 6.01622V9.54805C125.56 9.51393 125.193 9.49687 124.971 9.49687C123.401 9.49687 122.284 9.84664 121.618 10.5462C120.953 11.2457 120.62 12.3889 120.62 13.9756V18.9151H116.832V5.99063Z" stroke="#7CA4D9" stroke-width="0.6" mask="url(#path-2-outside-2_171_258)"/>
<path d="M131.969 19.2222C130.536 19.2222 129.393 18.8895 128.54 18.2241C127.704 17.5416 127.286 16.6288 127.286 15.4856C127.286 14.3937 127.653 13.4979 128.386 12.7984C129.12 12.0988 130.127 11.6808 131.406 11.5443L135.527 11.1348C136.022 11.0836 136.406 10.9471 136.679 10.7253C136.969 10.4865 137.114 10.1879 137.114 9.82958C137.114 9.40303 136.9 9.07032 136.474 8.83145C136.047 8.59258 135.45 8.47315 134.682 8.47315C133.863 8.47315 133.189 8.62671 132.66 8.93382C132.149 9.22388 131.824 9.65042 131.688 10.2135H127.951C128.224 8.78026 128.941 7.67124 130.101 6.88638C131.278 6.08447 132.788 5.68351 134.631 5.68351C136.627 5.68351 138.163 6.16125 139.238 7.11672C140.33 8.05513 140.876 9.40303 140.876 11.1604V14.7434C140.876 15.2041 140.995 15.5112 141.234 15.6648C141.473 15.8013 141.942 15.8439 142.642 15.7927V18.9151C142.215 18.9663 141.814 18.9919 141.439 18.9919C139.528 18.9919 138.572 18.335 138.572 17.0212C138.572 16.6629 138.632 16.2961 138.752 15.9207L137.677 15.5624C137.199 16.7397 136.465 17.644 135.476 18.2753C134.503 18.9066 133.334 19.2222 131.969 19.2222ZM132.968 16.4582C134.025 16.4582 134.955 16.1254 135.757 15.46C136.576 14.7946 137.199 13.8562 137.625 12.6448L136.679 12.1074C136.371 12.551 136.03 12.8837 135.655 13.1055C135.279 13.3102 134.768 13.4552 134.119 13.5406L132.712 13.7197C132.166 13.788 131.739 13.95 131.432 14.206C131.142 14.4619 130.997 14.7861 130.997 15.1785C130.997 15.5709 131.168 15.8866 131.509 16.1254C131.85 16.3473 132.336 16.4582 132.968 16.4582Z" stroke="#7CA4D9" stroke-width="0.6" mask="url(#path-2-outside-2_171_258)"/>
<path d="M152 19.2478C150.635 19.2478 149.406 18.9577 148.314 18.3776C147.222 17.7805 146.361 16.97 145.729 15.9463C145.115 14.9055 144.808 13.7453 144.808 12.4657C144.808 11.186 145.115 10.0343 145.729 9.0106C146.361 7.96982 147.222 7.15938 148.314 6.57927C149.406 5.9821 150.635 5.68351 152 5.68351C153.211 5.68351 154.32 5.91385 155.327 6.37453C156.35 6.8352 157.195 7.47502 157.86 8.294C158.526 9.11297 158.952 10.0514 159.14 11.1092H155.557C155.301 10.4097 154.866 9.8637 154.252 9.47128C153.655 9.07885 152.955 8.88264 152.153 8.88264C151.095 8.88264 150.225 9.21535 149.543 9.88076C148.877 10.5462 148.544 11.4078 148.544 12.4657C148.544 13.5235 148.877 14.3851 149.543 15.0505C150.208 15.6989 151.078 16.0231 152.153 16.0231C153.006 16.0231 153.74 15.8098 154.354 15.3833C154.985 14.9396 155.412 14.3425 155.634 13.5917H159.191C159.021 14.6837 158.603 15.6648 157.937 16.5349C157.272 17.388 156.427 18.0535 155.403 18.5312C154.38 19.0089 153.245 19.2478 152 19.2478Z" stroke="#7CA4D9" stroke-width="0.6" mask="url(#path-2-outside-2_171_258)"/>
<path d="M171.46 18.9151C170.555 17.4989 169.813 16.4496 169.233 15.7671C168.67 15.0847 168.15 14.6155 167.672 14.3595C167.194 14.0865 166.631 13.933 165.983 13.8989V18.9151H162.195V1H165.983V10.5718C166.597 10.5547 167.117 10.4353 167.544 10.2135C167.987 9.9746 168.465 9.54805 168.977 8.93382C169.506 8.31959 170.231 7.33853 171.152 5.99063H175.631C174.608 7.57739 173.763 8.75467 173.098 9.52246C172.449 10.2902 171.818 10.8362 171.204 11.1604C170.607 11.4675 169.873 11.6552 169.003 11.7235V12.824C169.924 12.8922 170.709 13.1055 171.357 13.4638C172.023 13.8221 172.697 14.4107 173.379 15.2297C174.079 16.0487 174.949 17.2771 175.99 18.9151H171.46Z" stroke="#7CA4D9" stroke-width="0.6" mask="url(#path-2-outside-2_171_258)"/>
<path d="M184.392 19.2478C183.01 19.2478 181.764 18.9577 180.655 18.3776C179.563 17.7805 178.702 16.97 178.07 15.9463C177.456 14.9226 177.149 13.7624 177.149 12.4657C177.149 11.1689 177.456 10.0087 178.07 8.98501C178.702 7.94423 179.572 7.13378 180.681 6.55368C181.79 5.97357 183.035 5.68351 184.417 5.68351C185.817 5.68351 187.071 5.9821 188.18 6.57927C189.289 7.15938 190.15 7.96982 190.765 9.0106C191.379 10.0343 191.686 11.1945 191.686 12.4912C191.686 12.8666 191.66 13.2505 191.609 13.6429H180.834C181.005 14.4619 181.406 15.1188 182.037 15.6136C182.686 16.1084 183.471 16.3558 184.392 16.3558C185.074 16.3558 185.689 16.2278 186.235 15.9719C186.781 15.6989 186.802 15.5835 187.565 15.4946H191.328C190.816 16.8596 189.937 17.2686 188.691 18.0705C187.463 18.8554 186.03 19.2478 184.392 19.2478ZM188.052 11.314C187.864 10.4609 187.446 9.78692 186.798 9.29212C186.149 8.79733 185.356 8.54993 184.417 8.54993C183.479 8.54993 182.686 8.80586 182.037 9.31772C181.406 9.81251 180.997 10.4779 180.809 11.314H188.052Z" stroke="#7CA4D9" stroke-width="0.6" mask="url(#path-2-outside-2_171_258)"/>
<path d="M194.761 5.99063H198.344C198.327 6.50249 198.25 7.00582 198.114 7.50062C197.994 7.97835 197.79 8.55846 197.499 9.24094L198.677 9.7528C199.103 8.4049 199.658 7.4409 200.34 6.86079C201.04 6.28068 201.987 5.99063 203.181 5.99063C203.539 5.99063 203.812 5.99916 204 6.01622V9.54805C203.488 9.51393 203.121 9.49687 202.9 9.49687C201.33 9.49687 200.212 9.84664 199.547 10.5462C198.881 11.2457 198.549 12.3889 198.549 13.9756V18.9151H194.761V5.99063Z" stroke="#7CA4D9" stroke-width="0.6" mask="url(#path-2-outside-2_171_258)"/>
</svg>
