<svg width="92" height="57" viewBox="0 0 92 57" fill="none" xmlns="http://www.w3.org/2000/svg">
<path d="M4.14993 8.36151H7.63508V24H4.14993V8.36151ZM11.1277 12.7179H14.3895C14.3597 13.1499 14.2852 13.5446 14.1661 13.902C14.0618 14.2595 13.8831 14.6541 13.6299 15.0861L14.5459 15.5776C14.9927 14.535 15.5437 13.7605 16.1991 13.2541C16.8693 12.7477 17.6661 12.4945 18.5895 12.4945C19.8555 12.4945 20.8385 12.9414 21.5385 13.835C22.2385 14.7286 22.5885 15.9722 22.5885 17.5659V24H19.2821V18.1467C19.2821 17.2233 19.0736 16.5233 18.6565 16.0467C18.2544 15.5552 17.6587 15.3095 16.8693 15.3095C16.0799 15.3095 15.4767 15.5552 15.0597 16.0467C14.6427 16.5233 14.4342 17.2233 14.4342 18.1467V24H11.1277V12.7179ZM24.1923 12.7179H27.7668C28.4668 14.3712 28.9732 15.652 29.286 16.5605C29.6137 17.4542 29.8371 18.2361 29.9562 18.9063C30.0903 19.5616 30.1722 20.3436 30.202 21.2521H31.252C31.2818 20.3436 31.3562 19.5616 31.4754 18.9063C31.6094 18.2361 31.8328 17.4542 32.1456 16.5605C32.4733 15.652 32.9871 14.3712 33.6871 12.7179H37.2616L32.5701 24H28.8839L24.1923 12.7179ZM44.685 24.2904C43.4786 24.2904 42.3914 24.0372 41.4233 23.5308C40.4701 23.0096 39.7179 22.3021 39.1669 21.4085C38.6307 20.5149 38.3626 19.5021 38.3626 18.3701C38.3626 17.2382 38.6307 16.2254 39.1669 15.3318C39.7179 14.4233 40.4775 13.7158 41.4456 13.2094C42.4137 12.7031 43.501 12.4499 44.7074 12.4499C45.9287 12.4499 47.0234 12.7105 47.9915 13.2318C48.9595 13.7382 49.7117 14.4456 50.2479 15.3541C50.784 16.2478 51.0521 17.2606 51.0521 18.3925C51.0521 18.7201 51.0298 19.0553 50.9851 19.3978H41.5797C41.7286 20.1127 42.0786 20.6861 42.6297 21.118C43.1956 21.55 43.8808 21.7659 44.685 21.7659C45.2808 21.7659 45.817 21.6542 46.2936 21.4308C46.7702 21.1925 47.1574 20.8574 47.4553 20.4255H50.7394C50.2925 21.617 49.5255 22.5627 48.4383 23.2628C47.3659 23.9479 46.1148 24.2904 44.685 24.2904ZM47.8797 17.3648C47.7159 16.6201 47.351 16.0318 46.7851 15.5999C46.2191 15.168 45.5265 14.952 44.7074 14.952C43.8882 14.952 43.1956 15.1754 42.6297 15.6222C42.0786 16.0542 41.7212 16.635 41.5573 17.3648H47.8797ZM53.7365 12.7179H56.8642C56.8493 13.1648 56.7823 13.6041 56.6631 14.036C56.5589 14.4531 56.3802 14.9595 56.127 15.5552L57.1546 16.002C57.527 14.8254 58.011 13.9839 58.6068 13.4775C59.2174 12.9711 60.044 12.7179 61.0866 12.7179C61.3994 12.7179 61.6377 12.7254 61.8015 12.7403V15.8233C61.3547 15.7935 61.0345 15.7786 60.8408 15.7786C59.4706 15.7786 58.4951 16.0839 57.9142 16.6946C57.3334 17.3052 57.0429 18.3031 57.0429 19.6882V24H53.7365V12.7179ZM68.5283 24.2904C66.9198 24.2904 65.6464 23.9479 64.7081 23.2628C63.7697 22.5627 63.3006 21.6095 63.3006 20.4031H66.4506C66.4506 20.8649 66.6294 21.2298 66.9868 21.4978C67.3443 21.751 67.8506 21.8776 68.506 21.8776C69.0719 21.8776 69.5113 21.7808 69.8241 21.5872C70.1517 21.3936 70.3156 21.118 70.3156 20.7606C70.3156 20.3585 70.1071 20.068 69.69 19.8893C69.2879 19.7106 68.64 19.5319 67.7464 19.3531C66.8528 19.1744 66.1155 18.9882 65.5347 18.7946C64.9687 18.601 64.4772 18.2808 64.0602 17.834C63.658 17.3723 63.457 16.7467 63.457 15.9573C63.457 14.7956 63.9038 13.9243 64.7974 13.3435C65.691 12.7477 66.8304 12.4499 68.2155 12.4499C69.7198 12.4499 70.9262 12.7924 71.8347 13.4775C72.7433 14.1478 73.205 15.0488 73.2199 16.1808H70.1368C70.1219 15.7637 69.9432 15.4361 69.6007 15.1978C69.273 14.9446 68.8187 14.818 68.2379 14.818C67.7464 14.818 67.3517 14.9148 67.0538 15.1084C66.7559 15.2871 66.607 15.5403 66.607 15.868C66.607 16.2552 66.8081 16.5382 67.2102 16.7169C67.6272 16.8808 68.2826 17.052 69.1762 17.2308C70.0847 17.4095 70.8294 17.5957 71.4103 17.7893C72.006 17.9829 72.5124 18.3106 72.9294 18.7723C73.3613 19.234 73.5773 19.8595 73.5773 20.6489C73.5773 21.7659 73.123 22.6521 72.2145 23.3074C71.306 23.9628 70.0773 24.2904 68.5283 24.2904ZM81.9922 24.2904C80.7859 24.2904 79.6986 24.0372 78.7305 23.5308C77.7773 23.0096 77.0252 22.3021 76.4741 21.4085C75.9379 20.5149 75.6698 19.5021 75.6698 18.3701C75.6698 17.2382 75.9379 16.2254 76.4741 15.3318C77.0252 14.4233 77.7847 13.7158 78.7528 13.2094C79.7209 12.7031 80.8082 12.4499 82.0146 12.4499C83.2359 12.4499 84.3306 12.7105 85.2987 13.2318C86.2668 13.7382 87.0189 14.4456 87.5551 15.3541C88.0913 16.2478 88.3593 17.2606 88.3593 18.3925C88.3593 18.7201 88.337 19.0553 88.2923 19.3978H78.8869C79.0358 20.1127 79.3858 20.6861 79.9369 21.118C80.5029 21.55 81.188 21.7659 81.9922 21.7659C82.588 21.7659 83.1242 21.6542 83.6008 21.4308C84.0774 21.1925 84.4646 20.8574 84.7625 20.4255H88.0466C87.5998 21.617 86.8327 22.5627 85.7455 23.2628C84.6731 23.9479 83.4221 24.2904 81.9922 24.2904ZM85.187 17.3648C85.0231 16.6201 84.6582 16.0318 84.0923 15.5999C83.5263 15.168 82.8337 14.952 82.0146 14.952C81.1954 14.952 80.5029 15.1754 79.9369 15.6222C79.3858 16.0542 79.0284 16.635 78.8646 17.3648H85.187Z" fill="#191919"/>
<path d="M4.14993 8.36151V8.21257H4.00099V8.36151H4.14993ZM7.63508 8.36151H7.78402V8.21257H7.63508V8.36151ZM7.63508 24V24.1489H7.78402V24H7.63508ZM4.14993 24H4.00099V24.1489H4.14993V24ZM4.14993 8.51045H7.63508V8.21257H4.14993V8.51045ZM7.48614 8.36151V24H7.78402V8.36151H7.48614ZM7.63508 23.8511H4.14993V24.1489H7.63508V23.8511ZM4.29887 24V8.36151H4.00099V24H4.29887ZM11.1277 12.7179V12.569H10.9788V12.7179H11.1277ZM14.3895 12.7179L14.5381 12.7282L14.549 12.569H14.3895V12.7179ZM14.1661 13.902L14.0247 13.8549L14.0231 13.8603L14.1661 13.902ZM13.6299 15.0861L13.5014 15.0107L13.4232 15.1442L13.5595 15.2173L13.6299 15.0861ZM14.5459 15.5776L14.4754 15.7088L14.6187 15.7857L14.6828 15.6362L14.5459 15.5776ZM16.1991 13.2541L16.1093 13.1353L16.108 13.1363L16.1991 13.2541ZM21.5385 13.835L21.4212 13.9268L21.5385 13.835ZM22.5885 24V24.1489H22.7374V24H22.5885ZM19.2821 24H19.1331V24.1489H19.2821V24ZM18.6565 16.0467L18.5412 16.1411L18.5445 16.1448L18.6565 16.0467ZM15.0597 16.0467L15.1718 16.1448L15.1733 16.1431L15.0597 16.0467ZM14.4342 24V24.1489H14.5831V24H14.4342ZM11.1277 24H10.9788V24.1489H11.1277V24ZM11.1277 12.8669H14.3895V12.569H11.1277V12.8669ZM14.2409 12.7077C14.2118 13.1289 14.1394 13.511 14.0248 13.8549L14.3074 13.9491C14.431 13.5781 14.5075 13.1708 14.5381 12.7282L14.2409 12.7077ZM14.0231 13.8603C13.9232 14.2028 13.7504 14.586 13.5014 15.0107L13.7584 15.1614C14.0158 14.7223 14.2004 14.3162 14.309 13.9437L14.0231 13.8603ZM13.5595 15.2173L14.4754 15.7088L14.6163 15.4463L13.7003 14.9548L13.5595 15.2173ZM14.6828 15.6362C15.1231 14.6087 15.6609 13.8582 16.2901 13.372L16.108 13.1363C15.4266 13.6628 14.8622 14.4612 14.409 15.5189L14.6828 15.6362ZM16.2889 13.373C16.9306 12.8881 17.6951 12.6435 18.5895 12.6435V12.3456C17.6371 12.3456 16.8079 12.6074 16.1093 13.1353L16.2889 13.373ZM18.5895 12.6435C19.8157 12.6435 20.753 13.0737 21.4212 13.9268L21.6557 13.7431C20.924 12.809 19.8953 12.3456 18.5895 12.3456V12.6435ZM21.4212 13.9268C22.0939 14.7855 22.4396 15.9924 22.4396 17.5659H22.7374C22.7374 15.9521 22.3832 14.6717 21.6557 13.7431L21.4212 13.9268ZM22.4396 17.5659V24H22.7374V17.5659H22.4396ZM22.5885 23.8511H19.2821V24.1489H22.5885V23.8511ZM19.431 24V18.1467H19.1331V24H19.431ZM19.431 18.1467C19.431 17.2034 19.2183 16.4625 18.7686 15.9486L18.5445 16.1448C18.9289 16.5841 19.1331 17.2432 19.1331 18.1467H19.431ZM18.7718 15.9524C18.3346 15.4181 17.6915 15.1605 16.8693 15.1605V15.4584C17.6259 15.4584 18.1742 15.6924 18.5413 16.141L18.7718 15.9524ZM16.8693 15.1605C16.0469 15.1605 15.3977 15.4181 14.9461 15.9504L15.1733 16.1431C15.5557 15.6923 16.1129 15.4584 16.8693 15.4584V15.1605ZM14.9476 15.9486C14.498 16.4625 14.2852 17.2034 14.2852 18.1467H14.5831C14.5831 17.2432 14.7874 16.5841 15.1718 16.1448L14.9476 15.9486ZM14.2852 18.1467V24H14.5831V18.1467H14.2852ZM14.4342 23.8511H11.1277V24.1489H14.4342V23.8511ZM11.2767 24V12.7179H10.9788V24H11.2767ZM24.1923 12.7179V12.569H23.9691L24.0548 12.7751L24.1923 12.7179ZM27.7668 12.7179L27.904 12.6599L27.8655 12.569H27.7668V12.7179ZM29.286 16.5605L29.1452 16.609L29.1462 16.6118L29.286 16.5605ZM29.9562 18.9063L29.8095 18.9324L29.8103 18.9362L29.9562 18.9063ZM30.202 21.2521L30.0531 21.257L30.0578 21.401H30.202V21.2521ZM31.252 21.2521V21.401H31.3961L31.4008 21.257L31.252 21.2521ZM31.4754 18.9063L31.3293 18.8771L31.3289 18.8797L31.4754 18.9063ZM32.1456 16.5605L32.0055 16.51L32.005 16.5113L32.1456 16.5605ZM33.6871 12.7179V12.569H33.5884L33.55 12.6599L33.6871 12.7179ZM37.2616 12.7179L37.3992 12.7751L37.4849 12.569H37.2616V12.7179ZM32.5701 24V24.1489H32.6695L32.7076 24.0572L32.5701 24ZM28.8839 24L28.7464 24.0572L28.7845 24.1489H28.8839V24ZM24.1923 12.8669H27.7668V12.569H24.1923V12.8669ZM27.6297 12.776C28.3293 14.4283 28.8341 15.7054 29.1452 16.609L29.4268 16.5121C29.1124 15.5986 28.6044 14.314 27.904 12.6599L27.6297 12.776ZM29.1462 16.6118C29.4719 17.5002 29.6924 18.2734 29.8096 18.9324L30.1029 18.8803C29.9817 18.1988 29.7554 17.4081 29.4258 16.5093L29.1462 16.6118ZM29.8103 18.9362C29.9422 19.5809 30.0235 20.3541 30.0531 21.257L30.3508 21.2472C30.3209 20.3331 30.2383 19.5424 30.1021 18.8765L29.8103 18.9362ZM30.202 21.401H31.252V21.1032H30.202V21.401ZM31.4008 21.257C31.4305 20.3533 31.5045 19.5791 31.6219 18.933L31.3289 18.8797C31.208 19.5442 31.1331 20.3338 31.1031 21.2472L31.4008 21.257ZM31.6214 18.9355C31.7537 18.2741 31.9749 17.4991 32.2862 16.6097L32.005 16.5113C31.6908 17.4092 31.4652 18.1981 31.3293 18.8771L31.6214 18.9355ZM32.2857 16.6111C32.612 15.7064 33.1246 14.4285 33.8243 12.776L33.55 12.6599C32.8496 14.3139 32.3346 15.5977 32.0055 16.51L32.2857 16.6111ZM33.6871 12.8669H37.2616V12.569H33.6871V12.8669ZM37.1241 12.6608L32.4326 23.9428L32.7076 24.0572L37.3992 12.7751L37.1241 12.6608ZM32.5701 23.8511H28.8839V24.1489H32.5701V23.8511ZM29.0214 23.9428L24.3298 12.6608L24.0548 12.7751L28.7464 24.0572L29.0214 23.9428ZM41.4233 23.5308L41.3518 23.6615L41.3543 23.6628L41.4233 23.5308ZM39.1669 21.4085L39.0392 21.4851L39.0401 21.4867L39.1669 21.4085ZM39.1669 15.3318L39.0395 15.2546L39.0392 15.2552L39.1669 15.3318ZM41.4456 13.2094L41.5147 13.3414L41.4456 13.2094ZM47.9915 13.2318L47.9208 13.3629L47.9224 13.3638L47.9915 13.2318ZM50.2479 15.3541L50.1196 15.4299L50.1201 15.4308L50.2479 15.3541ZM50.9851 19.3978V19.5468H51.1159L51.1328 19.4171L50.9851 19.3978ZM41.5797 19.3978V19.2489H41.3965L41.4339 19.4282L41.5797 19.3978ZM42.6297 21.118L42.5378 21.2353L42.5393 21.2364L42.6297 21.118ZM46.2936 21.4308L46.3568 21.5657L46.3602 21.564L46.2936 21.4308ZM47.4553 20.4255V20.2766H47.3771L47.3327 20.3409L47.4553 20.4255ZM50.7394 20.4255L50.8788 20.4778L50.9543 20.2766H50.7394V20.4255ZM48.4383 23.2628L48.5185 23.3883L48.5189 23.388L48.4383 23.2628ZM47.8797 17.3648V17.5138H48.065L48.0252 17.3328L47.8797 17.3648ZM46.7851 15.5999L46.6947 15.7183L46.7851 15.5999ZM42.6297 15.6222L42.7216 15.7395L42.722 15.7391L42.6297 15.6222ZM41.5573 17.3648L41.412 17.3322L41.3713 17.5138H41.5573V17.3648ZM44.685 24.1415C43.5001 24.1415 42.437 23.893 41.4923 23.3989L41.3543 23.6628C42.3458 24.1815 43.4571 24.4394 44.685 24.4394V24.1415ZM41.4947 23.4002C40.5634 22.8908 39.8307 22.2011 39.2936 21.3303L39.0401 21.4867C39.6052 22.4031 40.3768 23.1283 41.3518 23.6615L41.4947 23.4002ZM39.2946 21.3319C38.7735 20.4634 38.5115 19.4775 38.5115 18.3701H38.2137C38.2137 19.5267 38.4879 20.5664 39.0392 21.4851L39.2946 21.3319ZM38.5115 18.3701C38.5115 17.2628 38.7735 16.2769 39.2946 15.4084L39.0392 15.2552C38.4879 16.1739 38.2137 17.2136 38.2137 18.3701H38.5115ZM39.2942 15.4091C39.8308 14.5244 40.5699 13.8356 41.5147 13.3414L41.3766 13.0775C40.3851 13.5961 39.6051 14.3221 39.0395 15.2546L39.2942 15.4091ZM41.5147 13.3414C42.4593 12.8473 43.5225 12.5988 44.7074 12.5988V12.3009C43.4795 12.3009 42.3681 12.5588 41.3766 13.0775L41.5147 13.3414ZM44.7074 12.5988C45.9068 12.5988 46.9768 12.8546 47.9208 13.3629L48.0621 13.1006C47.0699 12.5664 45.9505 12.3009 44.7074 12.3009V12.5988ZM47.9224 13.3638C48.8668 13.8578 49.598 14.5461 50.1196 15.4298L50.3761 15.2785C49.8253 14.3451 49.0523 13.6186 48.0605 13.0998L47.9224 13.3638ZM50.1201 15.4308C50.6412 16.2993 50.9032 17.2851 50.9032 18.3925H51.2011C51.2011 17.236 50.9268 16.1963 50.3756 15.2775L50.1201 15.4308ZM50.9032 18.3925C50.9032 18.7134 50.8813 19.042 50.8374 19.3786L51.1328 19.4171C51.1783 19.0685 51.2011 18.7269 51.2011 18.3925H50.9032ZM50.9851 19.2489H41.5797V19.5468H50.9851V19.2489ZM41.4339 19.4282C41.5896 20.1759 41.9578 20.7807 42.5378 21.2353L42.7216 21.0008C42.1994 20.5916 41.8676 20.0495 41.7255 19.3674L41.4339 19.4282ZM42.5393 21.2364C43.1346 21.6907 43.8526 21.9149 44.685 21.9149V21.617C43.909 21.617 43.2567 21.4092 42.72 20.9997L42.5393 21.2364ZM44.685 21.9149C45.2997 21.9149 45.8579 21.7995 46.3568 21.5657L46.2303 21.296C45.776 21.5089 45.2618 21.617 44.685 21.617V21.9149ZM46.3602 21.564C46.8589 21.3147 47.2655 20.963 47.5779 20.51L47.3327 20.3409C47.0493 20.7518 46.6814 21.0704 46.227 21.2976L46.3602 21.564ZM47.4553 20.5744H50.7394V20.2766H47.4553V20.5744ZM50.5999 20.3732C50.1645 21.5342 49.4184 22.4546 48.3576 23.1375L48.5189 23.388C49.6326 22.6709 50.4206 21.6998 50.8788 20.4778L50.5999 20.3732ZM48.3581 23.1372C47.3125 23.8052 46.09 24.1415 44.685 24.1415V24.4394C46.1396 24.4394 47.4193 24.0905 48.5185 23.3883L48.3581 23.1372ZM48.0252 17.3328C47.8544 16.5564 47.4715 15.9364 46.8754 15.4815L46.6947 15.7183C47.2306 16.1273 47.5774 16.6839 47.7343 17.3968L48.0252 17.3328ZM46.8754 15.4815C46.2797 15.0269 45.554 14.8031 44.7074 14.8031V15.101C45.499 15.101 46.1585 15.3091 46.6947 15.7183L46.8754 15.4815ZM44.7074 14.8031C43.8595 14.8031 43.1332 15.035 42.5374 15.5053L42.722 15.7391C43.2581 15.3159 43.9169 15.101 44.7074 15.101V14.8031ZM42.5378 15.505C41.9578 15.9596 41.5828 16.5713 41.412 17.3322L41.7027 17.3974C41.8595 16.6987 42.1994 16.1487 42.7216 15.7395L42.5378 15.505ZM41.5573 17.5138H47.8797V17.2159H41.5573V17.5138ZM53.7365 12.7179V12.569H53.5876V12.7179H53.7365ZM56.8642 12.7179L57.0131 12.7229L57.0182 12.569H56.8642V12.7179ZM56.6631 14.036L56.5195 13.9964L56.5186 13.9999L56.6631 14.036ZM56.127 15.5552L55.9899 15.497L55.9321 15.6329L56.0676 15.6918L56.127 15.5552ZM57.1546 16.002L57.0952 16.1386L57.2468 16.2045L57.2966 16.047L57.1546 16.002ZM58.6068 13.4775L58.5117 13.3629L58.5103 13.364L58.6068 13.4775ZM61.8015 12.7403H61.9504V12.6043L61.815 12.592L61.8015 12.7403ZM61.8015 15.8233L61.7916 15.9719L61.9504 15.9825V15.8233H61.8015ZM57.9142 16.6946L57.8063 16.5919L57.9142 16.6946ZM57.0429 24V24.1489H57.1919V24H57.0429ZM53.7365 24H53.5876V24.1489H53.7365V24ZM53.7365 12.8669H56.8642V12.569H53.7365V12.8669ZM56.7153 12.713C56.7008 13.1481 56.6356 13.5758 56.5196 13.9964L56.8067 14.0757C56.929 13.6325 56.9978 13.1815 57.0131 12.7229L56.7153 12.713ZM56.5186 13.9999C56.417 14.4066 56.2414 14.9052 55.9899 15.497L56.264 15.6135C56.5189 15.0138 56.7008 14.4995 56.8076 14.0722L56.5186 13.9999ZM56.0676 15.6918L57.0952 16.1386L57.214 15.8654L56.1863 15.4186L56.0676 15.6918ZM57.2966 16.047C57.665 14.8829 58.1378 14.0716 58.7032 13.591L58.5103 13.364C57.8843 13.8962 57.389 14.7679 57.0126 15.9571L57.2966 16.047ZM58.7018 13.5922C59.2784 13.1141 60.0677 12.8669 61.0866 12.8669V12.569C60.0203 12.569 59.1565 12.8282 58.5117 13.3629L58.7018 13.5922ZM61.0866 12.8669C61.3981 12.8669 61.631 12.8743 61.788 12.8886L61.815 12.592C61.6443 12.5764 61.4006 12.569 61.0866 12.569V12.8669ZM61.6526 12.7403V15.8233H61.9504V12.7403H61.6526ZM61.8114 15.6747C61.3644 15.6449 61.0399 15.6297 60.8408 15.6297V15.9276C61.0291 15.9276 61.3449 15.9421 61.7916 15.9719L61.8114 15.6747ZM60.8408 15.6297C59.4544 15.6297 58.4286 15.9377 57.8063 16.5919L58.0221 16.7972C58.5615 16.2302 59.4868 15.9276 60.8408 15.9276V15.6297ZM57.8063 16.5919C57.1866 17.2435 56.894 18.2881 56.894 19.6882H57.1919C57.1919 18.3181 57.4801 17.367 58.0221 16.7972L57.8063 16.5919ZM56.894 19.6882V24H57.1919V19.6882H56.894ZM57.0429 23.8511H53.7365V24.1489H57.0429V23.8511ZM53.8854 24V12.7179H53.5876V24H53.8854ZM64.708 23.2628L64.619 23.3821L64.6202 23.383L64.708 23.2628ZM63.3006 20.4031V20.2542H63.1516V20.4031H63.3006ZM66.4506 20.4031H66.5996V20.2542H66.4506V20.4031ZM66.9868 21.4978L66.8974 21.617L66.9007 21.6194L66.9868 21.4978ZM69.8241 21.5872L69.7483 21.459L69.7457 21.4606L69.8241 21.5872ZM69.69 19.8893L69.6295 20.0254L69.6314 20.0262L69.69 19.8893ZM67.7464 19.3531L67.7172 19.4992L67.7464 19.3531ZM65.5347 18.7946L65.4864 18.9355L65.4876 18.9359L65.5347 18.7946ZM64.0602 17.834L63.9478 17.9318L63.9513 17.9356L64.0602 17.834ZM64.7974 13.3435L64.8786 13.4684L64.88 13.4674L64.7974 13.3435ZM71.8347 13.4775L71.7451 13.5965L71.7463 13.5974L71.8347 13.4775ZM73.2199 16.1808V16.3297H73.3708L73.3688 16.1788L73.2199 16.1808ZM70.1368 16.1808L69.988 16.1861L69.9931 16.3297H70.1368V16.1808ZM69.6007 15.1978L69.5095 15.3158L69.5156 15.32L69.6007 15.1978ZM67.0538 15.1084L67.1305 15.2362L67.135 15.2333L67.0538 15.1084ZM67.2102 16.7169L67.1497 16.8532L67.1557 16.8556L67.2102 16.7169ZM69.1762 17.2308L69.147 17.3768L69.1474 17.3769L69.1762 17.2308ZM71.4103 17.7893L71.3632 17.9306L71.3642 17.9309L71.4103 17.7893ZM72.9294 18.7723L72.8189 18.8721L72.8207 18.874L72.9294 18.7723ZM72.2145 23.3074L72.3017 23.4282L72.2145 23.3074ZM68.5283 24.1415C66.9395 24.1415 65.7005 23.803 64.7959 23.1425L64.6202 23.383C65.5922 24.0927 66.9001 24.4394 68.5283 24.4394V24.1415ZM64.7971 23.1434C63.8978 22.4725 63.4495 21.5642 63.4495 20.4031H63.1516C63.1516 21.6549 63.6417 22.653 64.619 23.3821L64.7971 23.1434ZM63.3006 20.5521H66.4506V20.2542H63.3006V20.5521ZM66.3017 20.4031C66.3017 20.9099 66.501 21.3197 66.8974 21.617L67.0762 21.3787C66.7577 21.1398 66.5996 20.8198 66.5996 20.4031H66.3017ZM66.9007 21.6194C67.293 21.8972 67.8343 22.0266 68.506 22.0266V21.7287C67.867 21.7287 67.3955 21.6048 67.0729 21.3763L66.9007 21.6194ZM68.506 22.0266C69.0859 22.0266 69.5567 21.9279 69.9025 21.7138L69.7457 21.4606C69.4659 21.6338 69.058 21.7287 68.506 21.7287V22.0266ZM69.8998 21.7154C70.2693 21.4971 70.4645 21.1747 70.4645 20.7606H70.1666C70.1666 21.0613 70.0342 21.29 69.7483 21.459L69.8998 21.7154ZM70.4645 20.7606C70.4645 20.5324 70.4048 20.328 70.2802 20.1543C70.1563 19.9819 69.9755 19.8496 69.7487 19.7524L69.6314 20.0262C69.8215 20.1077 69.9535 20.2101 70.0382 20.328C70.122 20.4448 70.1666 20.5866 70.1666 20.7606H70.4645ZM69.7505 19.7532C69.3325 19.5674 68.6711 19.3862 67.7756 19.2071L67.7172 19.4992C68.6089 19.6775 69.2433 19.8537 69.6295 20.0254L69.7505 19.7532ZM67.7756 19.2071C66.8854 19.0291 66.1547 18.8443 65.5818 18.6533L65.4876 18.9359C66.0764 19.1322 66.8201 19.3198 67.7172 19.4992L67.7756 19.2071ZM65.5829 18.6537C65.0406 18.4682 64.5698 18.1617 64.1691 17.7323L63.9513 17.9356C64.3846 18.3999 64.8968 18.7338 65.4864 18.9355L65.5829 18.6537ZM64.1725 17.7361C63.8001 17.3086 63.6059 16.7214 63.6059 15.9573H63.308C63.308 16.772 63.5159 17.4359 63.9479 17.9318L64.1725 17.7361ZM63.6059 15.9573C63.6059 14.8407 64.0316 14.0189 64.8786 13.4684L64.7162 13.2186C63.776 13.8298 63.308 14.7506 63.308 15.9573H63.6059ZM64.88 13.4674C65.743 12.8921 66.8514 12.5988 68.2155 12.5988V12.3009C66.8095 12.3009 65.6391 12.6034 64.7148 13.2196L64.88 13.4674ZM68.2155 12.5988C69.6978 12.5988 70.8696 12.9363 71.7451 13.5964L71.9244 13.3586C70.9828 12.6486 69.7418 12.3009 68.2155 12.3009V12.5988ZM71.7463 13.5974C72.6172 14.2399 73.0566 15.0972 73.0709 16.1827L73.3688 16.1788C73.3533 15.0004 72.8693 14.0557 71.9231 13.3577L71.7463 13.5974ZM73.2199 16.0318H70.1368V16.3297H73.2199V16.0318ZM70.2857 16.1754C70.2691 15.7116 70.0668 15.3406 69.6857 15.0755L69.5156 15.32C69.8197 15.5316 69.9748 15.8159 69.988 16.1861L70.2857 16.1754ZM69.6917 15.0799C69.3293 14.7999 68.8387 14.669 68.2379 14.669V14.9669C68.7988 14.9669 69.2167 15.0893 69.5096 15.3156L69.6917 15.0799ZM68.2379 14.669C67.7282 14.669 67.3023 14.7693 66.9727 14.9835L67.135 15.2333C67.4011 15.0603 67.7645 14.9669 68.2379 14.9669V14.669ZM66.9772 14.9807C66.6377 15.1844 66.4581 15.4843 66.4581 15.868H66.756C66.756 15.5964 66.8742 15.3899 67.1305 15.2361L66.9772 14.9807ZM66.4581 15.868C66.4581 16.0888 66.5159 16.2873 66.6364 16.4569C66.756 16.6253 66.9307 16.7557 67.1497 16.853L67.2707 16.5808C67.0876 16.4995 66.9607 16.399 66.8792 16.2844C66.7986 16.171 66.756 16.0344 66.756 15.868H66.4581ZM67.1557 16.8556C67.5856 17.0244 68.2516 17.1977 69.147 17.3768L69.2054 17.0847C68.3135 16.9063 67.6689 16.7371 67.2647 16.5783L67.1557 16.8556ZM69.1474 17.3769C70.0526 17.555 70.7905 17.7397 71.3632 17.9306L71.4574 17.648C70.8683 17.4516 70.1169 17.264 69.2049 17.0846L69.1474 17.3769ZM71.3642 17.9309C71.9354 18.1166 72.4195 18.4299 72.8189 18.8721L73.04 18.6724C72.6053 18.1913 72.0767 17.8493 71.4563 17.6476L71.3642 17.9309ZM72.8207 18.874C73.2208 19.3017 73.4284 19.8875 73.4284 20.6489H73.7262C73.7262 19.8316 73.5019 19.1663 73.0382 18.6705L72.8207 18.874ZM73.4284 20.6489C73.4284 21.7179 72.9972 22.5592 72.1274 23.1866L72.3017 23.4282C73.2489 22.745 73.7262 21.8139 73.7262 20.6489H73.4284ZM72.1274 23.1866C71.2523 23.8179 70.0577 24.1415 68.5283 24.1415V24.4394C70.0969 24.4394 71.3597 24.1077 72.3017 23.4282L72.1274 23.1866ZM78.7305 23.5308L78.659 23.6615L78.6615 23.6628L78.7305 23.5308ZM76.4741 21.4085L76.3464 21.4851L76.3473 21.4867L76.4741 21.4085ZM76.4741 15.3318L76.3467 15.2546L76.3464 15.2552L76.4741 15.3318ZM78.7528 13.2094L78.8219 13.3414L78.7528 13.2094ZM85.2987 13.2318L85.2281 13.3629L85.2296 13.3638L85.2987 13.2318ZM87.5551 15.3541L87.4268 15.4299L87.4274 15.4308L87.5551 15.3541ZM88.2923 19.3978V19.5468H88.4231L88.44 19.4171L88.2923 19.3978ZM78.8869 19.3978V19.2489H78.7037L78.7411 19.4282L78.8869 19.3978ZM79.9369 21.118L79.845 21.2353L79.8465 21.2364L79.9369 21.118ZM83.6008 21.4308L83.664 21.5657L83.6674 21.564L83.6008 21.4308ZM84.7625 20.4255V20.2766H84.6843L84.6399 20.3409L84.7625 20.4255ZM88.0466 20.4255L88.186 20.4778L88.2615 20.2766H88.0466V20.4255ZM85.7455 23.2628L85.8257 23.3883L85.8261 23.388L85.7455 23.2628ZM85.187 17.3648V17.5138H85.3722L85.3324 17.3328L85.187 17.3648ZM84.0923 15.5999L84.0019 15.7183L84.0923 15.5999ZM79.9369 15.6222L80.0288 15.7395L80.0292 15.7391L79.9369 15.6222ZM78.8645 17.3648L78.7192 17.3322L78.6785 17.5138H78.8645V17.3648ZM81.9922 24.1415C80.8073 24.1415 79.7442 23.893 78.7995 23.3989L78.6615 23.6628C79.653 24.1815 80.7644 24.4394 81.9922 24.4394V24.1415ZM78.802 23.4002C77.8706 22.8908 77.1379 22.2011 76.6009 21.3303L76.3473 21.4867C76.9124 22.4031 77.684 23.1283 78.659 23.6615L78.802 23.4002ZM76.6018 21.3319C76.0807 20.4634 75.8188 19.4775 75.8188 18.3701H75.5209C75.5209 19.5267 75.7951 20.5664 76.3464 21.4851L76.6018 21.3319ZM75.8188 18.3701C75.8188 17.2628 76.0807 16.2769 76.6018 15.4084L76.3464 15.2552C75.7951 16.1739 75.5209 17.2136 75.5209 18.3701H75.8188ZM76.6014 15.4091C77.138 14.5244 77.8771 13.8356 78.8219 13.3414L78.6838 13.0775C77.6924 13.5961 76.9123 14.3221 76.3468 15.2546L76.6014 15.4091ZM78.8219 13.3414C79.7665 12.8473 80.8297 12.5988 82.0146 12.5988V12.3009C80.7867 12.3009 79.6754 12.5588 78.6838 13.0775L78.8219 13.3414ZM82.0146 12.5988C83.214 12.5988 84.284 12.8546 85.2281 13.3629L85.3693 13.1006C84.3772 12.5664 83.2578 12.3009 82.0146 12.3009V12.5988ZM85.2296 13.3638C86.1741 13.8578 86.9053 14.5461 87.4268 15.4298L87.6833 15.2785C87.1325 14.3451 86.3595 13.6186 85.3677 13.0998L85.2296 13.3638ZM87.4274 15.4308C87.9485 16.2993 88.2104 17.2851 88.2104 18.3925H88.5083C88.5083 17.236 88.234 16.1963 87.6828 15.2775L87.4274 15.4308ZM88.2104 18.3925C88.2104 18.7134 88.1885 19.042 88.1446 19.3786L88.44 19.4171C88.4855 19.0685 88.5083 18.7269 88.5083 18.3925H88.2104ZM88.2923 19.2489H78.8869V19.5468H88.2923V19.2489ZM78.7411 19.4282C78.8969 20.1759 79.265 20.7807 79.845 21.2353L80.0288 21.0008C79.5066 20.5916 79.1748 20.0495 79.0327 19.3674L78.7411 19.4282ZM79.8465 21.2364C80.4418 21.6907 81.1598 21.9149 81.9922 21.9149V21.617C81.2162 21.617 80.5639 21.4092 80.0273 20.9997L79.8465 21.2364ZM81.9922 21.9149C82.607 21.9149 83.1651 21.7995 83.664 21.5657L83.5376 21.296C83.0832 21.5089 82.569 21.617 81.9922 21.617V21.9149ZM83.6674 21.564C84.1661 21.3147 84.5727 20.963 84.8851 20.51L84.6399 20.3409C84.3565 20.7518 83.9887 21.0704 83.5342 21.2976L83.6674 21.564ZM84.7625 20.5744H88.0466V20.2766H84.7625V20.5744ZM87.9071 20.3732C87.4718 21.5342 86.7256 22.4546 85.6649 23.1375L85.8261 23.388C86.9398 22.6709 87.7278 21.6998 88.186 20.4778L87.9071 20.3732ZM85.6653 23.1372C84.6198 23.8052 83.3973 24.1415 81.9922 24.1415V24.4394C83.4468 24.4394 84.7265 24.0905 85.8257 23.3883L85.6653 23.1372ZM85.3324 17.3328C85.1616 16.5564 84.7787 15.9364 84.1826 15.4815L84.0019 15.7183C84.5378 16.1273 84.8847 16.6839 85.0415 17.3968L85.3324 17.3328ZM84.1826 15.4815C83.5869 15.0269 82.8613 14.8031 82.0146 14.8031V15.101C82.8062 15.101 83.4657 15.3091 84.0019 15.7183L84.1826 15.4815ZM82.0146 14.8031C81.1667 14.8031 80.4404 15.035 79.8446 15.5053L80.0292 15.7391C80.5653 15.3159 81.2241 15.101 82.0146 15.101V14.8031ZM79.845 15.505C79.265 15.9596 78.89 16.5713 78.7192 17.3322L79.0099 17.3974C79.1667 16.6987 79.5067 16.1487 80.0288 15.7395L79.845 15.505ZM78.8645 17.5138H85.187V17.2159H78.8645V17.5138Z" fill="#191919"/>
<path d="M5.58517 33.8298H0.692562V30.7021H13.9629V33.8298H9.07032V46.3406H5.58517V33.8298ZM15.0489 35.0585H18.1766C18.1617 35.5053 18.0947 35.9447 17.9755 36.3766C17.8713 36.7937 17.6926 37.3 17.4394 37.8958L18.467 38.3426C18.8394 37.166 19.3234 36.3245 19.9192 35.8181C20.5298 35.3117 21.3564 35.0585 22.399 35.0585C22.7118 35.0585 22.9501 35.066 23.1139 35.0809V38.1639C22.6671 38.1341 22.3469 38.1192 22.1532 38.1192C20.783 38.1192 19.8075 38.4245 19.2266 39.0352C18.6458 39.6458 18.3553 40.6437 18.3553 42.0288V46.3406H15.0489V35.0585ZM28.2624 46.6087C27.0113 46.6087 26.0134 46.3182 25.2687 45.7374C24.5389 45.1416 24.174 44.3448 24.174 43.3469C24.174 42.3937 24.4942 41.6118 25.1347 41.0011C25.7751 40.3905 26.6538 40.0256 27.7709 39.9065L31.3677 39.549C31.7997 39.5043 32.1348 39.3852 32.3731 39.1916C32.6263 38.983 32.7529 38.7224 32.7529 38.4096C32.7529 38.0373 32.5667 37.7469 32.1943 37.5383C31.822 37.3298 31.3007 37.2256 30.6305 37.2256C29.9156 37.2256 29.3273 37.3596 28.8656 37.6277C28.4188 37.8809 28.1358 38.2532 28.0166 38.7447H24.7549C24.9932 37.4937 25.6187 36.5256 26.6315 35.8404C27.6592 35.1404 28.9773 34.7904 30.5858 34.7904C32.3284 34.7904 33.6688 35.2075 34.6071 36.0415C35.5603 36.8607 36.0369 38.0373 36.0369 39.5713V42.699C36.0369 43.1012 36.1412 43.3693 36.3497 43.5033C36.5582 43.6225 36.9678 43.6597 37.5784 43.615V46.3406C37.2061 46.3853 36.8561 46.4076 36.5284 46.4076C34.8603 46.4076 34.0263 45.8342 34.0263 44.6874C34.0263 44.3746 34.0784 44.0544 34.1827 43.7267L33.2444 43.4139C32.8273 44.4416 32.1869 45.231 31.3231 45.7821C30.4741 46.3331 29.4539 46.6087 28.2624 46.6087ZM29.1337 44.1959C30.0571 44.1959 30.8688 43.9054 31.5688 43.3246C32.2837 42.7437 32.8273 41.9246 33.1997 40.8671L32.3731 40.398C32.105 40.7852 31.8071 41.0756 31.4794 41.2692C31.1518 41.448 30.705 41.5746 30.139 41.649L28.9103 41.8054C28.4337 41.865 28.0613 42.0065 27.7932 42.2299C27.54 42.4533 27.4134 42.7363 27.4134 43.0788C27.4134 43.4214 27.5624 43.6969 27.8602 43.9054C28.1581 44.0991 28.5826 44.1959 29.1337 44.1959ZM45.7471 46.631C44.5556 46.631 43.4833 46.3778 42.5301 45.8714C41.5768 45.3501 40.8247 44.6427 40.2736 43.7491C39.7375 42.8405 39.4694 41.8278 39.4694 40.7107C39.4694 39.5937 39.7375 38.5884 40.2736 37.6947C40.8247 36.7862 41.5768 36.0787 42.5301 35.5724C43.4833 35.0511 44.5556 34.7904 45.7471 34.7904C46.8046 34.7904 47.7727 34.9915 48.6514 35.3936C49.545 35.7958 50.2823 36.3543 50.8631 37.0692C51.444 37.7841 51.8163 38.6032 51.9802 39.5267H48.8525C48.6291 38.916 48.2493 38.4394 47.7131 38.0969C47.1918 37.7543 46.5812 37.583 45.8812 37.583C44.9577 37.583 44.1982 37.8735 43.6024 38.4543C43.0215 39.0352 42.7311 39.7873 42.7311 40.7107C42.7311 41.6341 43.0215 42.3863 43.6024 42.9671C44.1833 43.5331 44.9428 43.8161 45.8812 43.8161C46.6258 43.8161 47.2663 43.6299 47.8025 43.2576C48.3535 42.8703 48.7259 42.349 48.9195 41.6937H52.0248C51.8759 42.6469 51.511 43.5033 50.9302 44.2629C50.3493 45.0076 49.6121 45.5884 48.7184 46.0055C47.8248 46.4225 46.8344 46.631 45.7471 46.631ZM62.7342 46.3406C61.9449 45.1044 61.297 44.1884 60.7906 43.5927C60.2991 42.9969 59.8448 42.5873 59.4278 42.3639C59.0108 42.1256 58.5193 41.9916 57.9533 41.9618V46.3406H54.6469V30.7021H57.9533V39.0575C58.4895 39.0426 58.9438 38.9384 59.3161 38.7447C59.7034 38.5362 60.1204 38.1639 60.5672 37.6277C61.0289 37.0915 61.6619 36.2351 62.4662 35.0585H66.3758C65.4822 36.4436 64.7449 37.4713 64.1641 38.1415C63.5981 38.8118 63.047 39.2884 62.5108 39.5713C61.9896 39.8394 61.3491 40.0033 60.5895 40.0628V41.0235C61.3938 41.0831 62.0789 41.2692 62.6449 41.582C63.2257 41.8948 63.814 42.4086 64.4098 43.1235C65.0204 43.8384 65.78 44.9108 66.6885 46.3406H62.7342ZM74.0231 46.631C72.8167 46.631 71.7295 46.3778 70.7614 45.8714C69.8082 45.3501 69.056 44.6427 68.5049 43.7491C67.9688 42.8554 67.7007 41.8426 67.7007 40.7107C67.7007 39.5788 67.9688 38.566 68.5049 37.6724C69.056 36.7639 69.8156 36.0564 70.7837 35.55C71.7518 35.0436 72.839 34.7904 74.0454 34.7904C75.2667 34.7904 76.3614 35.0511 77.3295 35.5724C78.2976 36.0787 79.0498 36.7862 79.5859 37.6947C80.1221 38.5884 80.3902 39.6011 80.3902 40.7331C80.3902 41.0607 80.3679 41.3958 80.3232 41.7384H70.9177C71.0667 42.4533 71.4167 43.0267 71.9678 43.4586C72.5337 43.8905 73.2188 44.1065 74.0231 44.1065C74.6189 44.1065 75.155 43.9948 75.6316 43.7714C76.1082 43.5331 76.4955 43.198 76.7933 42.7661H80.0774C79.6306 43.9576 78.8636 44.9033 77.7763 45.6033C76.704 46.2884 75.4529 46.631 74.0231 46.631ZM77.2178 39.7054C77.054 38.9607 76.6891 38.3724 76.1231 37.9405C75.5572 37.5086 74.8646 37.2926 74.0454 37.2926C73.2263 37.2926 72.5337 37.516 71.9678 37.9628C71.4167 38.3947 71.0592 38.9756 70.8954 39.7054H77.2178ZM83.0746 35.0585H86.2023C86.1874 35.5053 86.1204 35.9447 86.0012 36.3766C85.897 36.7937 85.7182 37.3 85.465 37.8958L86.4927 38.3426C86.865 37.166 87.3491 36.3245 87.9448 35.8181C88.5555 35.3117 89.3821 35.0585 90.4247 35.0585C90.7374 35.0585 90.9757 35.066 91.1396 35.0809V38.1639C90.6928 38.1341 90.3725 38.1192 90.1789 38.1192C88.8087 38.1192 87.8331 38.4245 87.2523 39.0352C86.6714 39.6458 86.381 40.6437 86.381 42.0288V46.3406H83.0746V35.0585Z" fill="#7CA4D9"/>
<path d="M5.58517 33.8298H5.73411V33.6808H5.58517V33.8298ZM0.692562 33.8298H0.543624V33.9787H0.692562V33.8298ZM0.692562 30.7021V30.5532H0.543624V30.7021H0.692562ZM13.9629 30.7021H14.1119V30.5532H13.9629V30.7021ZM13.9629 33.8298V33.9787H14.1119V33.8298H13.9629ZM9.07032 33.8298V33.6808H8.92138V33.8298H9.07032ZM9.07032 46.3406V46.4895H9.21926V46.3406H9.07032ZM5.58517 46.3406H5.43624V46.4895H5.58517V46.3406ZM5.58517 33.6808H0.692562V33.9787H5.58517V33.6808ZM0.8415 33.8298V30.7021H0.543624V33.8298H0.8415ZM0.692562 30.851H13.9629V30.5532H0.692562V30.851ZM13.814 30.7021V33.8298H14.1119V30.7021H13.814ZM13.9629 33.6808H9.07032V33.9787H13.9629V33.6808ZM8.92138 33.8298V46.3406H9.21926V33.8298H8.92138ZM9.07032 46.1916H5.58517V46.4895H9.07032V46.1916ZM5.73411 46.3406V33.8298H5.43624V46.3406H5.73411ZM15.0489 35.0585V34.9096H14.9V35.0585H15.0489ZM18.1766 35.0585L18.3255 35.0635L18.3306 34.9096H18.1766V35.0585ZM17.9755 36.3766L17.8319 36.337L17.831 36.3405L17.9755 36.3766ZM17.4394 37.8958L17.3023 37.8375L17.2445 37.9735L17.38 38.0324L17.4394 37.8958ZM18.467 38.3426L18.4076 38.4792L18.5592 38.5451L18.609 38.3875L18.467 38.3426ZM19.9192 35.8181L19.8241 35.7035L19.8227 35.7046L19.9192 35.8181ZM23.1139 35.0809H23.2628V34.9449L23.1274 34.9325L23.1139 35.0809ZM23.1139 38.1639L23.104 38.3125L23.2628 38.3231V38.1639H23.1139ZM19.2266 39.0352L19.1187 38.9325L19.2266 39.0352ZM18.3553 46.3406V46.4895H18.5043V46.3406H18.3553ZM15.0489 46.3406H14.9V46.4895H15.0489V46.3406ZM15.0489 35.2075H18.1766V34.9096H15.0489V35.2075ZM18.0277 35.0536C18.0132 35.4886 17.948 35.9164 17.832 36.337L18.1191 36.4162C18.2414 35.973 18.3102 35.522 18.3255 35.0635L18.0277 35.0536ZM17.831 36.3405C17.7294 36.7472 17.5538 37.2458 17.3023 37.8375L17.5764 37.954C17.8313 37.3543 18.0132 36.8401 18.12 36.4127L17.831 36.3405ZM17.38 38.0324L18.4076 38.4792L18.5264 38.206L17.4987 37.7592L17.38 38.0324ZM18.609 38.3875C18.9774 37.2235 19.4502 36.4122 20.0156 35.9316L19.8227 35.7046C19.1967 36.2368 18.7014 37.1085 18.325 38.2977L18.609 38.3875ZM20.0142 35.9328C20.5908 35.4547 21.3801 35.2075 22.399 35.2075V34.9096C21.3327 34.9096 20.4689 35.1688 19.8241 35.7035L20.0142 35.9328ZM22.399 35.2075C22.7105 35.2075 22.9434 35.2149 23.1004 35.2292L23.1274 34.9325C22.9567 34.917 22.713 34.9096 22.399 34.9096V35.2075ZM22.965 35.0809V38.1639H23.2628V35.0809H22.965ZM23.1238 38.0153C22.6768 37.9855 22.3523 37.9703 22.1532 37.9703V38.2681C22.3415 38.2681 22.6573 38.2827 23.104 38.3125L23.1238 38.0153ZM22.1532 37.9703C20.7668 37.9703 19.741 38.2783 19.1187 38.9325L19.3345 39.1378C19.8739 38.5708 20.7992 38.2681 22.1532 38.2681V37.9703ZM19.1187 38.9325C18.499 39.584 18.2064 40.6287 18.2064 42.0288H18.5043C18.5043 40.6587 18.7925 39.7076 19.3345 39.1378L19.1187 38.9325ZM18.2064 42.0288V46.3406H18.5043V42.0288H18.2064ZM18.3553 46.1916H15.0489V46.4895H18.3553V46.1916ZM15.1978 46.3406V35.0585H14.9V46.3406H15.1978ZM25.2687 45.7374L25.1745 45.8528L25.1771 45.8548L25.2687 45.7374ZM25.1347 41.0012L25.0319 40.8934L25.1347 41.0012ZM27.7709 39.9065L27.7562 39.7582L27.7551 39.7584L27.7709 39.9065ZM31.3677 39.549L31.3825 39.6972L31.3831 39.6972L31.3677 39.549ZM32.3731 39.1916L32.467 39.3071L32.4677 39.3065L32.3731 39.1916ZM28.8656 37.6277L28.939 37.7573L28.9404 37.7565L28.8656 37.6277ZM28.0166 38.7447V38.8937H28.1338L28.1614 38.7798L28.0166 38.7447ZM24.7549 38.7447L24.6086 38.7169L24.5749 38.8937H24.7549V38.7447ZM26.6315 35.8404L26.715 35.9638L26.7154 35.9635L26.6315 35.8404ZM34.6071 36.0415L34.5082 36.1528L34.5101 36.1545L34.6071 36.0415ZM36.3497 43.5033L36.2691 43.6288L36.2758 43.6326L36.3497 43.5033ZM37.5784 43.615H37.7274V43.4548L37.5676 43.4665L37.5784 43.615ZM37.5784 46.3406L37.5962 46.4885L37.7274 46.4727V46.3406H37.5784ZM34.1827 43.7267L34.3246 43.7719L34.3691 43.6319L34.2298 43.5854L34.1827 43.7267ZM33.2444 43.4139L33.2915 43.2726L33.1589 43.2285L33.1063 43.3579L33.2444 43.4139ZM31.3231 45.7821L31.2429 45.6565L31.242 45.6571L31.3231 45.7821ZM31.5688 43.3246L31.4749 43.209L31.4737 43.21L31.5688 43.3246ZM33.1997 40.8671L33.3402 40.9166L33.3815 40.7991L33.2732 40.7376L33.1997 40.8671ZM32.3731 40.398L32.4466 40.2684L32.3281 40.2012L32.2506 40.3132L32.3731 40.398ZM31.4794 41.2692L31.5508 41.4001L31.5552 41.3975L31.4794 41.2692ZM30.139 41.649L30.1578 41.7968L30.1584 41.7967L30.139 41.649ZM28.9103 41.8054L28.9287 41.9532L28.9291 41.9532L28.9103 41.8054ZM27.7932 42.2299L27.6978 42.1154L27.6947 42.1182L27.7932 42.2299ZM27.8602 43.9054L27.7748 44.0275L27.7791 44.0303L27.8602 43.9054ZM28.2624 46.4597C27.0337 46.4597 26.0715 46.1746 25.3603 45.6199L25.1771 45.8548C25.9554 46.4619 26.9889 46.7576 28.2624 46.7576V46.4597ZM25.3629 45.622C24.6701 45.0564 24.323 44.3031 24.323 43.3469H24.0251C24.0251 44.3865 24.4078 45.2268 25.1745 45.8528L25.3629 45.622ZM24.323 43.3469C24.323 42.431 24.6289 41.6892 25.2375 41.1089L25.0319 40.8934C24.3595 41.5344 24.0251 42.3565 24.0251 43.3469H24.323ZM25.2375 41.1089C25.8484 40.5264 26.6934 40.1712 27.7867 40.0546L27.7551 39.7584C26.6143 39.88 25.7019 40.2546 25.0319 40.8934L25.2375 41.1089ZM27.7856 40.0547L31.3825 39.6972L31.353 39.4008L27.7562 39.7582L27.7856 40.0547ZM31.3831 39.6972C31.8324 39.6507 32.1987 39.5251 32.467 39.3071L32.2791 39.076C32.0708 39.2452 31.7669 39.358 31.3524 39.4009L31.3831 39.6972ZM32.4677 39.3065C32.7534 39.0713 32.9018 38.7693 32.9018 38.4096H32.6039C32.6039 38.6755 32.4991 38.8948 32.2784 39.0766L32.4677 39.3065ZM32.9018 38.4096C32.9018 37.9745 32.6782 37.6386 32.2671 37.4084L32.1216 37.6683C32.4552 37.8551 32.6039 38.1001 32.6039 38.4096H32.9018ZM32.2671 37.4084C31.8633 37.1823 31.313 37.0766 30.6305 37.0766V37.3745C31.2884 37.3745 31.7807 37.4774 32.1216 37.6683L32.2671 37.4084ZM30.6305 37.0766C29.8979 37.0766 29.2816 37.2139 28.7908 37.4989L28.9404 37.7565C29.3729 37.5053 29.9333 37.3745 30.6305 37.3745V37.0766ZM28.7921 37.4981C28.3102 37.7713 28.0009 38.1775 27.8719 38.7097L28.1614 38.7798C28.2707 38.329 28.5274 37.9905 28.939 37.7573L28.7921 37.4981ZM28.0166 38.5958H24.7549V38.8937H28.0166V38.5958ZM24.9012 38.7726C25.1324 37.5586 25.7365 36.6257 26.715 35.9638L26.5481 35.7171C25.501 36.4254 24.854 37.4287 24.6086 38.7169L24.9012 38.7726ZM26.7154 35.9635C27.712 35.2847 28.9985 34.9394 30.5858 34.9394V34.6415C28.9561 34.6415 27.6064 34.9962 26.5477 35.7174L26.7154 35.9635ZM30.5858 34.9394C32.3061 34.9394 33.6061 35.351 34.5082 36.1528L34.7061 35.9302C33.7315 35.0639 32.3507 34.6415 30.5858 34.6415V34.9394ZM34.5101 36.1545C35.4232 36.9392 35.888 38.0702 35.888 39.5713H36.1859C36.1859 38.0043 35.6975 36.7822 34.7042 35.9286L34.5101 36.1545ZM35.888 39.5713V42.699H36.1859V39.5713H35.888ZM35.888 42.699C35.888 43.1193 35.9965 43.4533 36.2692 43.6286L36.4302 43.378C36.2859 43.2852 36.1859 43.083 36.1859 42.699H35.888ZM36.2758 43.6326C36.4074 43.7078 36.5868 43.7496 36.7998 43.7689C37.0156 43.7885 37.2794 43.7862 37.5893 43.7636L37.5676 43.4665C37.2668 43.4885 37.0206 43.4899 36.8268 43.4723C36.6302 43.4544 36.5006 43.418 36.4236 43.374L36.2758 43.6326ZM37.4295 43.615V46.3406H37.7274V43.615H37.4295ZM37.5607 46.1927C37.1934 46.2368 36.8494 46.2587 36.5284 46.2587V46.5565C36.8628 46.5565 37.2188 46.5337 37.5962 46.4885L37.5607 46.1927ZM36.5284 46.2587C35.7068 46.2587 35.117 46.1166 34.7362 45.8548C34.3655 45.5999 34.1752 45.2193 34.1752 44.6874H33.8773C33.8773 45.3022 34.1041 45.7817 34.5674 46.1003C35.0207 46.4119 35.6819 46.5565 36.5284 46.5565V46.2587ZM34.1752 44.6874C34.1752 44.3914 34.2245 44.0864 34.3246 43.7719L34.0407 43.6816C33.9323 44.0224 33.8773 44.3578 33.8773 44.6874H34.1752ZM34.2298 43.5854L33.2915 43.2726L33.1973 43.5552L34.1356 43.868L34.2298 43.5854ZM33.1063 43.3579C32.6999 44.3595 32.0786 45.1234 31.243 45.6565L31.4032 45.9076C32.2952 45.3385 32.9547 44.5238 33.3824 43.4699L33.1063 43.3579ZM31.242 45.6571C30.4212 46.1899 29.4303 46.4597 28.2624 46.4597V46.7576C29.4775 46.7576 30.527 46.4763 31.4041 45.907L31.242 45.6571ZM29.1337 44.3448C30.0912 44.3448 30.9367 44.0426 31.6639 43.4392L31.4737 43.21C30.8009 43.7683 30.0229 44.0469 29.1337 44.0469V44.3448ZM31.6627 43.4402C32.4031 42.8386 32.9607 41.9943 33.3402 40.9166L33.0592 40.8176C32.694 41.8548 32.1643 42.6489 31.4749 43.209L31.6627 43.4402ZM33.2732 40.7376L32.4466 40.2684L32.2995 40.5275L33.1262 40.9966L33.2732 40.7376ZM32.2506 40.3132C31.9919 40.6868 31.709 40.9606 31.4037 41.141L31.5552 41.3975C31.9052 41.1906 32.218 40.8836 32.4955 40.4827L32.2506 40.3132ZM31.4081 41.1385C31.1028 41.305 30.676 41.4282 30.1196 41.5014L30.1584 41.7967C30.734 41.721 31.2008 41.5909 31.5508 41.4L31.4081 41.1385ZM30.1202 41.5013L28.8915 41.6577L28.9291 41.9532L30.1578 41.7968L30.1202 41.5013ZM28.8918 41.6576C28.3972 41.7195 27.9947 41.8682 27.6979 42.1155L27.8886 42.3443C28.128 42.1448 28.4701 42.0105 28.9287 41.9532L28.8918 41.6576ZM27.6947 42.1182C27.4089 42.3704 27.2645 42.6943 27.2645 43.0788H27.5624C27.5624 42.7783 27.6711 42.5362 27.8918 42.3416L27.6947 42.1182ZM27.2645 43.0788C27.2645 43.4734 27.44 43.7931 27.7748 44.0275L27.9457 43.7834C27.6847 43.6008 27.5624 43.3694 27.5624 43.0788H27.2645ZM27.7791 44.0303C28.111 44.2461 28.5684 44.3448 29.1337 44.3448V44.0469C28.5967 44.0469 28.2052 43.952 27.9414 43.7806L27.7791 44.0303ZM42.5301 45.8714L42.4586 46.0021L42.4602 46.003L42.5301 45.8714ZM40.2736 43.7491L40.1454 43.8248L40.1469 43.8272L40.2736 43.7491ZM40.2736 37.6947L40.1463 37.6175L40.1459 37.6181L40.2736 37.6947ZM42.5301 35.5724L42.5999 35.7039L42.6015 35.703L42.5301 35.5724ZM48.6514 35.3936L48.5894 35.5291L48.5903 35.5295L48.6514 35.3936ZM50.8631 37.0692L50.9787 36.9753L50.8631 37.0692ZM51.9802 39.5267V39.6756H52.1579L52.1268 39.5006L51.9802 39.5267ZM48.8525 39.5267L48.7126 39.5778L48.7484 39.6756H48.8525V39.5267ZM47.7131 38.0969L47.6313 38.2213L47.6329 38.2224L47.7131 38.0969ZM43.6024 38.4543L43.4984 38.3477L43.4971 38.349L43.6024 38.4543ZM43.6024 42.9671L43.4971 43.0725L43.4985 43.0738L43.6024 42.9671ZM47.8025 43.2576L47.8874 43.3799L47.8881 43.3794L47.8025 43.2576ZM48.9195 41.6937V41.5448H48.8082L48.7767 41.6515L48.9195 41.6937ZM52.0248 41.6937L52.172 41.7167L52.1989 41.5448H52.0248V41.6937ZM50.9302 44.2629L51.0476 44.3545L51.0485 44.3534L50.9302 44.2629ZM48.7184 46.0055L48.6554 45.8705L48.7184 46.0055ZM45.7471 46.4821C44.5774 46.4821 43.5294 46.2337 42.5999 45.7399L42.4602 46.003C43.4371 46.5219 44.5338 46.7799 45.7471 46.7799V46.4821ZM42.6015 45.7407C41.6702 45.2314 40.9374 44.5417 40.4004 43.6709L40.1469 43.8272C40.712 44.7436 41.4835 45.4689 42.4586 46.0021L42.6015 45.7407ZM40.4019 43.6734C39.8801 42.7891 39.6183 41.8028 39.6183 40.7107H39.3204C39.3204 41.8528 39.5949 42.8919 40.1454 43.8248L40.4019 43.6734ZM39.6183 40.7107C39.6183 39.6187 39.8801 38.6402 40.4014 37.7714L40.1459 37.6181C39.5949 38.5365 39.3204 39.5687 39.3204 40.7107H39.6183ZM40.401 37.772C40.9379 36.8868 41.67 36.1979 42.5999 35.7039L42.4602 35.4408C41.4837 35.9596 40.7115 36.6856 40.1463 37.6175L40.401 37.772ZM42.6015 35.703C43.5307 35.1949 44.5781 34.9394 45.7471 34.9394V34.6415C44.5331 34.6415 43.4358 34.9073 42.4586 35.4417L42.6015 35.703ZM45.7471 34.9394C46.7852 34.9394 47.7319 35.1366 48.5894 35.5291L48.7134 35.2582C47.8134 34.8464 46.8239 34.6415 45.7471 34.6415V34.9394ZM48.5903 35.5295C49.4641 35.9227 50.1823 36.4674 50.7475 37.1631L50.9787 36.9753C50.3823 36.2412 49.6259 35.6689 48.7125 35.2578L48.5903 35.5295ZM50.7475 37.1631C51.3121 37.858 51.674 38.6537 51.8335 39.5527L52.1268 39.5006C51.9586 38.5528 51.5758 37.7102 50.9787 36.9753L50.7475 37.1631ZM51.9802 39.3777H48.8525V39.6756H51.9802V39.3777ZM48.9923 39.4755C48.758 38.8349 48.3576 38.3319 47.7933 37.9713L47.6329 38.2224C48.1409 38.5469 48.5001 38.9971 48.7126 39.5778L48.9923 39.4755ZM47.7949 37.9724C47.2464 37.612 46.6066 37.4341 45.8812 37.4341V37.732C46.5558 37.732 47.1372 37.8966 47.6313 38.2213L47.7949 37.9724ZM45.8812 37.4341C44.9235 37.4341 44.1252 37.7366 43.4984 38.3477L43.7064 38.5609C44.2712 38.0103 44.9919 37.732 45.8812 37.732V37.4341ZM43.4971 38.349C42.8847 38.9614 42.5822 39.7532 42.5822 40.7107H42.8801C42.8801 39.8215 43.1584 39.109 43.7077 38.5596L43.4971 38.349ZM42.5822 40.7107C42.5822 41.6683 42.8847 42.4601 43.4971 43.0724L43.7077 42.8618C43.1584 42.3125 42.8801 41.6 42.8801 40.7107H42.5822ZM43.4985 43.0738C44.1115 43.6711 44.9106 43.965 45.8812 43.965V43.6671C44.9751 43.6671 44.255 43.3951 43.7063 42.8605L43.4985 43.0738ZM45.8812 43.965C46.6518 43.965 47.3229 43.7719 47.8874 43.3799L47.7175 43.1352C47.2097 43.4879 46.5999 43.6671 45.8812 43.6671V43.965ZM47.8881 43.3794C48.4671 42.9725 48.8593 42.423 49.0623 41.7359L48.7767 41.6515C48.5924 42.2751 48.2399 42.7681 47.7168 43.1357L47.8881 43.3794ZM48.9195 41.8426H52.0248V41.5448H48.9195V41.8426ZM51.8777 41.6707C51.7326 42.5996 51.3775 43.4328 50.8118 44.1724L51.0485 44.3534C51.6446 43.5739 52.0193 42.6942 52.172 41.7167L51.8777 41.6707ZM50.8127 44.1713C50.247 44.8966 49.5287 45.463 48.6554 45.8705L48.7814 46.1404C49.6954 45.7139 50.4516 45.1186 51.0476 44.3545L50.8127 44.1713ZM48.6554 45.8705C47.7835 46.2774 46.8148 46.4821 45.7471 46.4821V46.7799C46.8539 46.7799 47.8661 46.5676 48.7814 46.1404L48.6554 45.8705ZM62.7342 46.3406L62.6087 46.4207L62.6526 46.4895H62.7342V46.3406ZM60.7906 43.5927L60.6757 43.6875L60.6771 43.6891L60.7906 43.5927ZM59.4278 42.3639L59.3539 42.4933L59.3575 42.4952L59.4278 42.3639ZM57.9533 41.9618L57.9612 41.8131L57.8044 41.8048V41.9618H57.9533ZM57.9533 46.3406V46.4895H58.1023V46.3406H57.9533ZM54.6469 46.3406H54.498V46.4895H54.6469V46.3406ZM54.6469 30.7021V30.5532H54.498V30.7021H54.6469ZM57.9533 30.7021H58.1023V30.5532H57.9533V30.7021ZM57.9533 39.0575H57.8044V39.2106L57.9575 39.2064L57.9533 39.0575ZM59.3161 38.7447L59.3848 38.8769L59.3867 38.8759L59.3161 38.7447ZM60.5672 37.6277L60.4543 37.5305L60.4528 37.5324L60.5672 37.6277ZM62.4662 35.0585V34.9096H62.3876L62.3432 34.9745L62.4662 35.0585ZM66.3758 35.0585L66.5009 35.1393L66.6491 34.9096H66.3758V35.0585ZM64.164 38.1415L64.0515 38.044L64.0503 38.0454L64.164 38.1415ZM62.5108 39.5713L62.579 39.7038L62.5804 39.7031L62.5108 39.5713ZM60.5895 40.0628L60.5779 39.9144L60.4406 39.9251V40.0628H60.5895ZM60.5895 41.0235H60.4406V41.1618L60.5785 41.172L60.5895 41.0235ZM62.6449 41.582L62.5728 41.7124L62.5743 41.7131L62.6449 41.582ZM64.4098 43.1235L64.2954 43.2189L64.2965 43.2202L64.4098 43.1235ZM66.6886 46.3406V46.4895H66.9596L66.8143 46.2607L66.6886 46.3406ZM62.8598 46.2604C62.0693 45.0225 61.4171 44.0998 60.9041 43.4962L60.6771 43.6891C61.1769 44.2771 61.8204 45.1862 62.6087 46.4207L62.8598 46.2604ZM60.9055 43.4979C60.4085 42.8955 59.9397 42.4692 59.4982 42.2326L59.3575 42.4952C59.75 42.7055 60.1897 43.0984 60.6757 43.6875L60.9055 43.4979ZM59.5017 42.2346C59.0612 41.9829 58.5462 41.8439 57.9612 41.8131L57.9455 42.1105C58.4924 42.1393 58.9604 42.2684 59.3539 42.4932L59.5017 42.2346ZM57.8044 41.9618V46.3406H58.1023V41.9618H57.8044ZM57.9533 46.1916H54.6469V46.4895H57.9533V46.1916ZM54.7959 46.3406V30.7021H54.498V46.3406H54.7959ZM54.6469 30.851H57.9533V30.5532H54.6469V30.851ZM57.8044 30.7021V39.0575H58.1023V30.7021H57.8044ZM57.9575 39.2064C58.5101 39.191 58.9877 39.0834 59.3848 38.8769L59.2474 38.6126C58.8998 38.7934 58.4689 38.8942 57.9492 38.9086L57.9575 39.2064ZM59.3867 38.8759C59.7976 38.6546 60.2289 38.2663 60.6816 37.7231L60.4528 37.5324C60.0118 38.0615 59.6091 38.4178 59.2455 38.6136L59.3867 38.8759ZM60.6801 37.7249C61.1474 37.1822 61.7842 36.3201 62.5891 35.1426L62.3432 34.9745C61.5396 36.1501 60.9104 37.0009 60.4543 37.5305L60.6801 37.7249ZM62.4662 35.2075H66.3758V34.9096H62.4662V35.2075ZM66.2506 34.9778C65.3582 36.3611 64.6254 37.3818 64.0515 38.044L64.2766 38.2391C64.8644 37.5609 65.6061 36.5262 66.5009 35.1393L66.2506 34.9778ZM64.0503 38.0454C63.4916 38.707 62.9548 39.1686 62.4413 39.4396L62.5804 39.7031C63.1392 39.4081 63.7046 38.9165 64.2778 38.2376L64.0503 38.0454ZM62.4427 39.4389C61.9434 39.6957 61.3234 39.8559 60.5779 39.9144L60.6012 40.2113C61.3748 40.1506 62.0357 39.9832 62.579 39.7038L62.4427 39.4389ZM60.4406 40.0628V41.0235H60.7385V40.0628H60.4406ZM60.5785 41.172C61.3665 41.2304 62.0297 41.4122 62.5728 41.7124L62.7169 41.4517C62.1281 41.1263 61.4211 40.9357 60.6005 40.875L60.5785 41.172ZM62.5743 41.7131C63.133 42.014 63.7072 42.513 64.2954 43.2189L64.5242 43.0282C63.9209 42.3042 63.3185 41.7756 62.7155 41.4509L62.5743 41.7131ZM64.2965 43.2202C64.9004 43.9272 65.6556 44.9927 66.5628 46.4205L66.8143 46.2607C65.9044 44.8289 65.1405 43.7496 64.523 43.0268L64.2965 43.2202ZM66.6886 46.1916H62.7342V46.4895H66.6886V46.1916ZM70.7614 45.8714L70.6899 46.0021L70.6923 46.0034L70.7614 45.8714ZM68.505 43.7491L68.3772 43.8257L68.3782 43.8272L68.505 43.7491ZM68.505 37.6724L68.3776 37.5951L68.3772 37.5958L68.505 37.6724ZM70.7837 35.55L70.8527 35.682L70.7837 35.55ZM77.3295 35.5724L77.2589 35.7035L77.2605 35.7043L77.3295 35.5724ZM79.5859 37.6947L79.4577 37.7704L79.4582 37.7714L79.5859 37.6947ZM80.3232 41.7384V41.8873H80.4539L80.4709 41.7577L80.3232 41.7384ZM70.9177 41.7384V41.5895H70.7346L70.7719 41.7688L70.9177 41.7384ZM71.9678 43.4586L71.8759 43.5759L71.8774 43.577L71.9678 43.4586ZM75.6316 43.7714L75.6949 43.9063L75.6982 43.9046L75.6316 43.7714ZM76.7934 42.7661V42.6171H76.7151L76.6707 42.6815L76.7934 42.7661ZM80.0774 42.7661L80.2169 42.8184L80.2924 42.6171H80.0774V42.7661ZM77.7763 45.6033L77.8565 45.7288L77.857 45.7286L77.7763 45.6033ZM77.2178 39.7054V39.8543H77.4031L77.3633 39.6734L77.2178 39.7054ZM76.1231 37.9405L76.0328 38.0589L76.1231 37.9405ZM71.9678 37.9628L72.0596 38.08L72.06 38.0797L71.9678 37.9628ZM70.8954 39.7054L70.7501 39.6728L70.7093 39.8543H70.8954V39.7054ZM74.0231 46.4821C72.8382 46.4821 71.775 46.2336 70.8304 45.7394L70.6923 46.0034C71.6839 46.5221 72.7952 46.7799 74.0231 46.7799V46.4821ZM70.8328 45.7407C69.9015 45.2314 69.1687 44.5417 68.6317 43.6709L68.3782 43.8272C68.9433 44.7436 69.7148 45.4689 70.6899 46.0021L70.8328 45.7407ZM68.6327 43.6724C68.1116 42.8039 67.8496 41.8181 67.8496 40.7107H67.5517C67.5517 41.8672 67.826 42.9069 68.3772 43.8257L68.6327 43.6724ZM67.8496 40.7107C67.8496 39.6034 68.1116 38.6175 68.6327 37.749L68.3772 37.5958C67.826 38.5145 67.5517 39.5542 67.5517 40.7107H67.8496ZM68.6323 37.7496C69.1689 36.865 69.908 36.1762 70.8527 35.682L70.7147 35.418C69.7232 35.9366 68.9432 36.6627 68.3776 37.5951L68.6323 37.7496ZM70.8527 35.682C71.7974 35.1879 72.8605 34.9394 74.0454 34.9394V34.6415C72.8176 34.6415 71.7062 34.8994 70.7147 35.418L70.8527 35.682ZM74.0454 34.9394C75.2449 34.9394 76.3148 35.1951 77.2589 35.7035L77.4001 35.4412C76.408 34.907 75.2886 34.6415 74.0454 34.6415V34.9394ZM77.2605 35.7043C78.2049 36.1983 78.9361 36.8867 79.4577 37.7704L79.7142 37.619C79.1634 36.6857 78.3903 35.9592 77.3986 35.4404L77.2605 35.7043ZM79.4582 37.7714C79.9793 38.6399 80.2413 39.6257 80.2413 40.7331H80.5391C80.5391 39.5765 80.2649 38.5369 79.7136 37.6181L79.4582 37.7714ZM80.2413 40.7331C80.2413 41.0539 80.2194 41.3826 80.1755 41.7191L80.4709 41.7577C80.5163 41.4091 80.5391 41.0675 80.5391 40.7331H80.2413ZM80.3232 41.5895H70.9177V41.8873H80.3232V41.5895ZM70.7719 41.7688C70.9277 42.5165 71.2959 43.1213 71.8759 43.5758L72.0596 43.3414C71.5375 42.9322 71.2057 42.3901 71.0636 41.708L70.7719 41.7688ZM71.8774 43.577C72.4726 44.0313 73.1906 44.2554 74.0231 44.2554V43.9576C73.247 43.9576 72.5948 43.7498 72.0581 43.3402L71.8774 43.577ZM74.0231 44.2554C74.6378 44.2554 75.196 44.1401 75.6948 43.9063L75.5684 43.6365C75.1141 43.8495 74.5999 43.9576 74.0231 43.9576V44.2554ZM75.6982 43.9046C76.1969 43.6553 76.6036 43.3036 76.916 42.8506L76.6707 42.6815C76.3874 43.0924 76.0195 43.4109 75.565 43.6382L75.6982 43.9046ZM76.7934 42.915H80.0774V42.6171H76.7934V42.915ZM79.938 42.7138C79.5026 43.8747 78.7565 44.7951 77.6957 45.4781L77.857 45.7286C78.9707 45.0115 79.7586 44.0404 80.2169 42.8184L79.938 42.7138ZM77.6962 45.4778C76.6506 46.1458 75.4281 46.4821 74.0231 46.4821V46.7799C75.4777 46.7799 76.7573 46.4311 77.8565 45.7288L77.6962 45.4778ZM77.3633 39.6734C77.1925 38.8969 76.8095 38.277 76.2135 37.8221L76.0328 38.0589C76.5686 38.4678 76.9155 39.0245 77.0724 39.7374L77.3633 39.6734ZM76.2135 37.8221C75.6178 37.3674 74.8921 37.1437 74.0454 37.1437V37.4415C74.8371 37.4415 75.4966 37.6497 76.0328 38.0589L76.2135 37.8221ZM74.0454 37.1437C73.1976 37.1437 72.4713 37.3756 71.8755 37.8459L72.06 38.0797C72.5962 37.6564 73.255 37.4415 74.0454 37.4415V37.1437ZM71.8759 37.8456C71.2959 38.3002 70.9209 38.9119 70.7501 39.6728L71.0407 39.738C71.1976 39.0393 71.5375 38.4893 72.0596 38.08L71.8759 37.8456ZM70.8954 39.8543H77.2178V39.5565H70.8954V39.8543ZM83.0746 35.0585V34.9096H82.9256V35.0585H83.0746ZM86.2023 35.0585L86.3511 35.0635L86.3563 34.9096H86.2023V35.0585ZM86.0012 36.3766L85.8576 36.337L85.8567 36.3405L86.0012 36.3766ZM85.465 37.8958L85.328 37.8375L85.2702 37.9735L85.4056 38.0324L85.465 37.8958ZM86.4927 38.3426L86.4333 38.4792L86.5848 38.5451L86.6347 38.3875L86.4927 38.3426ZM87.9448 35.8181L87.8498 35.7035L87.8484 35.7046L87.9448 35.8181ZM91.1396 35.0809H91.2885V34.9449L91.1531 34.9325L91.1396 35.0809ZM91.1396 38.1639L91.1297 38.3125L91.2885 38.3231V38.1639H91.1396ZM87.2523 39.0352L87.1444 38.9325L87.2523 39.0352ZM86.381 46.3406V46.4895H86.5299V46.3406H86.381ZM83.0746 46.3406H82.9256V46.4895H83.0746V46.3406ZM83.0746 35.2075H86.2023V34.9096H83.0746V35.2075ZM86.0534 35.0536C86.0389 35.4886 85.9737 35.9164 85.8576 36.337L86.1448 36.4162C86.267 35.973 86.3358 35.522 86.3511 35.0635L86.0534 35.0536ZM85.8567 36.3405C85.755 36.7472 85.5795 37.2458 85.328 37.8375L85.6021 37.954C85.857 37.3543 86.0389 36.8401 86.1457 36.4127L85.8567 36.3405ZM85.4056 38.0324L86.4333 38.4792L86.5521 38.206L85.5244 37.7592L85.4056 38.0324ZM86.6347 38.3875C87.0031 37.2235 87.4759 36.4122 88.0413 35.9316L87.8484 35.7046C87.2223 36.2368 86.727 37.1085 86.3507 38.2977L86.6347 38.3875ZM88.0399 35.9328C88.6164 35.4547 89.4058 35.2075 90.4247 35.2075V34.9096C89.3584 34.9096 88.4946 35.1688 87.8498 35.7035L88.0399 35.9328ZM90.4247 35.2075C90.7362 35.2075 90.9691 35.2149 91.1261 35.2292L91.1531 34.9325C90.9824 34.917 90.7387 34.9096 90.4247 34.9096V35.2075ZM90.9906 35.0809V38.1639H91.2885V35.0809H90.9906ZM91.1495 38.0153C90.7025 37.9855 90.3779 37.9703 90.1789 37.9703V38.2681C90.3671 38.2681 90.683 38.2827 91.1297 38.3125L91.1495 38.0153ZM90.1789 37.9703C88.7925 37.9703 87.7667 38.2783 87.1444 38.9325L87.3602 39.1378C87.8996 38.5708 88.8249 38.2681 90.1789 38.2681V37.9703ZM87.1444 38.9325C86.5246 39.584 86.2321 40.6287 86.2321 42.0288H86.5299C86.5299 40.6587 86.8182 39.7076 87.3602 39.1378L87.1444 38.9325ZM86.2321 42.0288V46.3406H86.5299V42.0288H86.2321ZM86.381 46.1916H83.0746V46.4895H86.381V46.1916ZM83.2235 46.3406V35.0585H82.9256V46.3406H83.2235Z" fill="#7CA4D9"/>
</svg>
